<svg
        viewBox="0 0 340 340"
        xmlns="http://www.w3.org/2000/svg">
<style>
  path {
    fill: #000000;
  }
  @media (prefers-color-scheme: dark) {
    path {
      fill: #ffffff;
    }
  }
</style>
<path d="m329.59 0h-319.18a10.41 10.41 0 0 0 -10.41 10.41v43.8h170a115.79 115.79 0 0 1 96.35 180h73.65v-223.8a10.41 10.41 0 0 0 -10.41-10.41z"/><path d="m54.21 170a115.2 115.2 0 0 1 19.44-64.22h-73.65v223.81a10.41 10.41 0 0 0 10.41 10.41h319.18a10.41 10.41 0 0 0 10.41-10.41v-43.8h-170a115.79 115.79 0 0 1 -115.79-115.79z"/><path d="m254.15 167.07c-13.12 4.77-23.6 7.24-32.32 8 .16-1.68.25-3.38.25-5.1a53.15 53.15 0 0 0 -.6-7.93c9.24-7.67 18.63-18.2 27.84-32.73a12.5 12.5 0 0 0 -21.12-13.31 124.22 124.22 0 0 1 -17.2 22 52.37 52.37 0 0 0 -10.71-10.26 102 102 0 0 0 -1.77-21.87 174.81 174.81 0 0 0 -8-28.48 12.5 12.5 0 0 0 -16-7.47 12.33 12.33 0 0 0 -4.54 2.9 12.47 12.47 0 0 0 -2.93 13.12c1.1 3 2.07 5.9 2.93 8.66 1.26 4 2.27 7.76 3.07 11.27a93.49 93.49 0 0 1 2 12.39c-1.68-.16-3.38-.25-5.1-.25a53.56 53.56 0 0 0 -7.86.59c-8.21-9.93-19-19.11-32.8-27.83a12.5 12.5 0 0 0 -13.29 21.03 124.61 124.61 0 0 1 22 17.19 52.47 52.47 0 0 0 -10.27 10.72c-13.24-.45-29.5 2.14-50.35 9.73a12.5 12.5 0 1 0 8.55 23.49c13.12-4.77 23.6-7.24 32.32-8-.16 1.68-.25 3.38-.25 5.1a52.22 52.22 0 0 0 .59 7.86c-9.93 8.21-19.11 19-27.83 32.8a12.5 12.5 0 0 0 3.88 17.25 12.49 12.49 0 0 0 17.16-3.94 124.61 124.61 0 0 1 17.19-22 52.72 52.72 0 0 0 10.72 10.27 102 102 0 0 0 1.77 21.87 174.81 174.81 0 0 0 8 28.48 12.48 12.48 0 0 0 16 7.47 12.33 12.33 0 0 0 4.54-2.9 12.47 12.47 0 0 0 2.93-13.12c-1.1-3-2.07-5.9-2.93-8.66-1.26-4-2.27-7.76-3.07-11.27a93.49 93.49 0 0 1 -2-12.39c1.68.16 3.38.25 5.1.25a53.25 53.25 0 0 0 7.93-.6c7.67 9.24 18.2 18.63 32.73 27.84a12.5 12.5 0 0 0 13.29-21.04 124.22 124.22 0 0 1 -21.91-17.2 52.27 52.27 0 0 0 10.25-10.7c.95 0 1.92.06 2.9.06 12.7 0 28.11-2.76 47.46-9.8a12.5 12.5 0 1 0 -8.55-23.49zm-84.15-25.07c.76 0 1.51 0 2.25.09a28.44 28.44 0 0 1 4.26.68 27.92 27.92 0 0 1 14.85 9.14 26.59 26.59 0 0 1 2.5 3.45 27.86 27.86 0 0 1 4.14 14.64c0 .76 0 1.51-.09 2.25a27 27 0 0 1 -.7 4.35 28 28 0 0 1 -9.12 14.76 28.51 28.51 0 0 1 -3.46 2.51 27.81 27.81 0 0 1 -14.63 4.13c-.76 0-1.51 0-2.25-.09a27 27 0 0 1 -4.35-.7 28 28 0 0 1 -21.4-27.21c0-.76 0-1.51.09-2.25a28.44 28.44 0 0 1 .68-4.26 28 28 0 0 1 27.23-21.49z"/>
</svg>