<svg xmlns="http://www.w3.org/2000/svg" viewBox="0 0 400 400">
<path id="c" fill="#000e" d="M200 400c110.457 0 200-89.543 200-200C400 89.5431 310.457 0 200 0 89.5431 0 0 89.5431 0 200c0 110.457 89.5431 200 200 200Z"/>
<path id="sf" fill="#fff"  d="M287.44 74.0024c-20.312.7125-38.06 11.9123-51.247 27.4006-14.627 16.985-24.345 37.141-31.355 57.702-12.532-10.274-22.2-23.568-42.306-29.367-15.553-4.467-31.868-2.629-46.879 8.556-7.118 5.315-12.012 13.345-14.342 20.889-6.0414 19.621 6.334 37.084 11.962 43.36l12.29 13.152c2.536 2.586 8.628 9.326 5.657 18.98-3.227 10.509-15.881 17.298-28.869 13.302-5.799-1.796-14.1347-6.106-12.261-12.176.7695-2.494 2.5506-4.368 3.5124-6.498.8763-1.852 1.2896-3.234 1.5532-4.047 2.3725-7.751-.8692-17.825-9.1622-20.383-7.7444-2.365-15.6526-.484-18.7233 9.469-3.491 11.335 1.9308 31.861 30.949 40.816 33.9979 10.452 62.7599-8.072 66.8349-32.21 2.572-15.118-4.267-26.361-16.771-40.816l-10.188-11.264c-6.177-6.177-8.293-16.686-1.909-24.758 5.393-6.818 13.066-9.725 25.655-6.312 18.36 4.972 26.546 17.718 40.197 27.999-5.636 18.488-9.326 37.048-12.653 53.705l-2.045 12.396c-9.768 51.197-17.213 79.304-36.577 95.441-3.898 2.785-9.483 6.932-17.883 7.224-4.41.143-5.828-2.892-5.899-4.218-.1-3.092 2.515-4.51 4.246-5.899 2.586-1.418 6.498-3.754 6.234-11.242-.292-8.878-7.63-16.558-18.232-16.194-7.958.263-20.0623 7.737-19.6063 21.444.4703 14.136 13.6503 24.744 33.5283 24.06 10.63-.349 34.354-4.674 57.73-32.467 27.208-31.868 34.825-68.395 40.553-95.126l6.383-35.288c3.555.42 7.346.712 11.478.805 33.891.727 50.841-16.835 51.104-29.603.164-7.73-5.072-15.332-12.411-15.161-5.243.15-11.841 3.641-13.422 10.894-1.546 7.124 10.786 13.551 1.147 19.799-6.847 4.439-19.123 7.559-36.407 5.023l3.149-17.377c6.405-32.944 14.328-73.4682 44.343-74.4443 2.188-.114 10.196.0998 10.381 5.3862.05 1.7668-.385 2.2228-2.451 6.2696-2.116 3.149-2.907 5.8349-2.814 8.9265.299 8.407 6.69 13.936 15.945 13.608 12.375-.406 15.937-12.453 15.738-18.6517-.513-14.5697-15.859-23.7603-36.157-23.1049Z"/>
<style>@media(prefers-color-scheme:dark){ #c{fill:#fffe;}#sf{fill:#000;} }</style>
</svg>
