<?xml version="1.0" encoding="UTF-8"?>
<svg width="200px" height="200px" viewBox="0 0 200 200" version="1.1" xmlns="http://www.w3.org/2000/svg" xmlns:xlink="http://www.w3.org/1999/xlink">
    <title>Artboard Copy 42</title>
    <g id="Artboard-Copy-42" stroke="none" stroke-width="1" fill="none" fill-rule="evenodd">
        <g id="symfony_black_02" fill="#FFFFFF" fill-rule="nonzero">
            <path d="M100,0 C155.228475,0 200,44.771525 200,100 C200,155.228475 155.228475,200 100,200 C44.771525,200 0,155.228475 0,100 C0,44.771525 44.771525,0 100,0 Z M143.150997,36.7511917 C132.999991,37.1085414 124.130767,42.7260781 117.540269,50.4948599 C110.230548,59.0140759 105.374016,69.1234979 101.870477,79.4366092 C100.274043,78.123104 98.7706097,76.711151 97.2500795,75.2881077 L96.5466815,74.630849 C92.3141987,70.6863895 87.8207155,66.7599452 80.7281852,64.706656 C72.9555981,62.4660736 64.8020367,63.3880358 57.3000481,68.9984255 C53.7431015,71.664254 51.297033,75.6915848 50.1327472,79.4759177 C47.1134371,89.3173275 53.2980381,98.0759678 56.1108387,101.224218 L62.2527136,107.820893 C63.5202541,109.118072 66.5644877,112.4986 65.0797562,117.340688 C63.4668465,122.611596 57.1433858,126.017138 50.6525812,124.012406 C47.7543284,123.111885 43.588535,120.94992 44.5249484,117.905301 C44.9094832,116.654577 45.79961,115.714747 46.2802785,114.646272 C46.7182208,113.717163 46.9247302,113.023904 47.056469,112.616526 C48.2421179,108.728561 46.6220871,103.675637 42.4776568,102.392752 C38.6073855,101.206351 34.6552226,102.149754 33.120644,107.141929 C31.3759955,112.827362 34.0855414,123.122606 48.5874871,127.614491 C65.5782272,132.856811 79.9519946,123.565719 81.9886047,111.458713 C83.2739478,103.875753 79.855861,98.2367751 73.6071709,90.9861504 L68.5156457,85.3364522 C65.4286859,82.2382306 64.3712153,76.9673231 67.5614297,72.9185514 C70.2567337,69.4987151 74.0913999,68.0407284 80.382816,69.7524333 C89.558243,72.246734 93.6492657,78.6397195 100.471197,83.7962752 C97.6548362,93.069499 95.8104935,102.378458 94.1477367,110.733293 L93.1258711,116.951177 C88.2444158,142.630324 84.5236858,156.727768 74.8462274,164.821738 C72.89863,166.218975 70.1071924,168.29875 65.9093544,168.445264 C63.7054005,168.516734 62.9968596,166.994424 62.9612545,166.329754 C62.9114074,164.778856 64.2181135,164.06773 65.0833168,163.370899 C66.3757809,162.659773 68.3304993,161.487666 68.1987605,157.731921 C68.0527797,153.279344 64.3854574,149.427115 59.0874227,149.609363 C55.1103362,149.741582 49.0610345,153.49018 49.288907,160.365588 C49.5239005,167.455405 56.1108387,172.776342 66.0446537,172.433286 C71.3569304,172.258185 83.2134192,170.089072 94.8954432,156.148862 C108.49302,140.164611 112.299202,121.843294 115.16185,108.435535 L118.352064,90.7360057 C120.128757,90.946842 122.022947,91.0933553 124.088041,91.1398108 C141.025374,91.5043074 149.49582,82.6956382 149.627559,76.2919322 C149.709451,72.4146883 147.092478,68.6017674 143.425156,68.6875313 C140.804622,68.7625747 137.507593,70.5135881 136.71716,74.1514077 C135.94453,77.7249043 142.107768,80.9481983 137.290402,84.0821549 C133.868755,86.3084433 127.734001,87.8736348 119.09621,86.60147 L120.669955,77.8857117 C123.87085,61.3618632 127.830134,41.0358142 142.830551,40.5462452 C143.923627,40.4890692 147.925637,40.5962741 148.01821,43.2478087 C148.043134,44.1340358 147.825943,44.3627396 146.793396,46.3924857 C145.735925,47.9719712 145.340709,49.3191795 145.386995,50.870077 C145.536536,55.0868031 148.730311,57.8598365 153.35541,57.6954556 C159.540011,57.4917663 161.320265,51.4489835 161.220571,48.3400414 C160.964214,41.0322407 153.294882,36.4224301 143.150997,36.7511917 Z" id="Combined-Shape"></path>
        </g>
        <g id="ux" transform="translate(116.000000, 127.000000)" fill="#000000" fill-rule="nonzero">
            <path d="M4.94049904,28 C4.09596929,28 3.30422265,27.6354167 2.56525912,26.90625 C1.82629559,26.1770833 1.30902111,25.3333333 1.0134357,24.375 C0.717850288,23.4166667 0.738963532,22.5416667 1.07677543,21.75 L6.96737044,8.5 C7.26295585,7.875 7.38963532,7.39583333 7.34740883,7.0625 C7.30518234,6.72916667 7.11516315,6.5625 6.77735125,6.5625 C6.56621881,6.5625 6.12284069,6.76041667 5.44721689,7.15625 C4.77159309,7.55208333 4.09596929,8 3.42034549,8.5 C2.74472169,9 2.23800384,9.41666667 1.90019194,9.75 C1.3512476,10.25 0.89731286,10.5 0.538387716,10.5 C0.179462572,10.5 0,10.3125 0,9.9375 C0,9.52083333 0.116122841,9.11458333 0.348368522,8.71875 C0.580614203,8.32291667 0.84452975,7.9375 1.14011516,7.5625 C2.3646833,6.0625 3.66314779,4.75 5.03550864,3.625 C6.40786948,2.5 7.80134357,1.61458333 9.2159309,0.96875 C10.6305182,0.322916667 11.9923225,0 13.3013436,0 C13.8925144,0 14.4836852,0.270833333 15.074856,0.8125 C15.6660269,1.35416667 16.109405,1.98958333 16.4049904,2.71875 C16.7005758,3.44791667 16.7005758,4.10416667 16.4049904,4.6875 C15.6026871,6.4375 14.6103647,8.55208333 13.428023,11.03125 C12.2456814,13.5104167 10.915547,16.3333333 9.43761996,19.5 C9.14203455,20.125 9.01535509,20.6666667 9.05758157,21.125 C9.09980806,21.5833333 9.33205374,21.8125 9.75431862,21.8125 C10.1765835,21.8125 10.7994242,21.3645833 11.6228407,20.46875 C12.4462572,19.5729167 13.3752399,18.4375 14.4097889,17.0625 C15.4443378,15.6875 16.5105566,14.2916667 17.6084453,12.875 C18.4107486,11.875 19.1919386,10.8333333 19.9520154,9.75 C20.7120921,8.66666667 21.4193858,7.61458333 22.0738964,6.59375 C22.7284069,5.57291667 23.2879079,4.66666667 23.7523992,3.875 C24.4702495,2.79166667 25.1142035,1.88541667 25.684261,1.15625 C26.2543186,0.427083333 26.8982726,0.0625 27.6161228,0.0625 C28.4184261,0.0625 29.1362764,0.291666667 29.7696737,0.75 C30.403071,1.20833333 30.8675624,1.75 31.1631478,2.375 C31.4587332,3 31.5009597,3.60416667 31.2898273,4.1875 L24.9558541,20.375 C24.8291747,20.7083333 24.7763916,21.0208333 24.7975048,21.3125 C24.818618,21.6041667 24.9347409,21.75 25.1458733,21.75 C25.4836852,21.75 26.0854127,21.4895833 26.9510557,20.96875 C27.8166987,20.4479167 28.7245681,19.8229167 29.6746641,19.09375 C30.6247601,18.3645833 31.3742802,17.7291667 31.9232246,17.1875 C32.049904,17.0625 32.134357,17 32.1765835,17 C32.3877159,17 32.5777351,17.09375 32.7466411,17.28125 C32.915547,17.46875 33,17.6875 33,17.9375 C33,18.4791667 32.7044146,19.1145833 32.1132438,19.84375 C31.5220729,20.5729167 30.7619962,21.34375 29.8330134,22.15625 C28.9040307,22.96875 27.9117083,23.71875 26.8560461,24.40625 C25.8003839,25.09375 24.7658349,25.6666667 23.7523992,26.125 C22.7389635,26.5833333 21.831094,26.8333333 21.0287908,26.875 C20.43762,27.0833333 19.8464491,27.1041667 19.2552783,26.9375 C18.6641075,26.7708333 18.1362764,26.5 17.671785,26.125 C17.2072937,25.75 16.8483685,25.375 16.5950096,25 C16.5105566,24.8333333 16.4577735,24.59375 16.4366603,24.28125 C16.415547,23.96875 16.4894434,23.6458333 16.6583493,23.3125 C16.9961612,22.5625 17.3867562,21.71875 17.8301344,20.78125 C18.2735125,19.84375 18.7274472,18.8333333 19.1919386,17.75 C19.6564299,16.6666667 20.1209213,15.5416667 20.5854127,14.375 C20.7120921,14 20.6698656,13.8020833 20.4587332,13.78125 C20.2476008,13.7604167 20.0364683,13.8958333 19.8253359,14.1875 C18.6007678,15.8541667 17.3445298,17.5 16.0566219,19.125 C14.768714,20.75 13.4808061,22.2291667 12.1928983,23.5625 C10.9049904,24.8958333 9.6487524,25.96875 8.42418426,26.78125 C7.19961612,27.59375 6.03838772,28 4.94049904,28 Z" id="Path"></path>
            <path d="M38.016791,28 C36.9906716,28 36.2313433,27.6972409 35.738806,27.0917226 C35.2462687,26.4862043 35,25.7867263 35,24.9932886 C35,24.3668904 35.1539179,23.7196122 35.4617537,23.0514541 C35.7695896,22.383296 36.1492537,21.8299776 36.6007463,21.3914989 C37.0522388,20.9530201 37.5242537,20.7337808 38.016791,20.7337808 C38.2220149,20.7337808 38.4477612,20.8381805 38.6940299,21.0469799 C38.9402985,21.2557793 39.1455224,21.5063386 39.3097015,21.7986577 C39.4738806,22.0074571 39.6996269,22.2058166 39.9869403,22.393736 C40.2742537,22.5816555 40.6231343,22.6756152 41.0335821,22.6756152 C41.4029851,22.6756152 41.8031716,22.5607755 42.2341418,22.3310962 C42.6651119,22.1014169 43.1063433,21.7360179 43.5578358,21.2348993 C43.9272388,20.8173005 44.358209,20.3266219 44.8507463,19.7628635 C45.3432836,19.1991051 45.8460821,18.6249068 46.3591418,18.0402685 C46.8722015,17.4556301 47.3134328,16.9127517 47.6828358,16.4116331 C47.8880597,16.1193139 48.011194,15.8583147 48.0522388,15.6286353 C48.0932836,15.398956 48.0522388,15.0961969 47.9291045,14.7203579 L45.5895522,6.63982103 C45.5074627,6.30574198 45.3945896,6.04474273 45.2509328,5.85682327 C45.1072761,5.6689038 44.9328358,5.57494407 44.7276119,5.57494407 C44.2761194,5.57494407 43.7117537,5.85682327 43.0345149,6.42058166 C42.3572761,6.98434004 41.6287313,7.74645787 40.8488806,8.70693512 C40.766791,8.79045488 40.6539179,8.88441462 40.5102612,8.98881432 C40.3666045,9.09321402 40.233209,9.14541387 40.1100746,9.14541387 C39.9458955,9.14541387 39.7919776,9.08277405 39.6483209,8.95749441 C39.5046642,8.83221477 39.4328358,8.6442953 39.4328358,8.39373602 C39.4328358,7.60029828 39.6688433,6.72334079 40.1408582,5.76286353 C40.6128731,4.80238628 41.238806,3.8836689 42.0186567,3.00671141 C42.7985075,2.12975391 43.7014925,1.40939597 44.7276119,0.845637584 C45.7537313,0.281879195 46.8414179,0 47.9906716,0 C49.016791,0 49.806903,0.386278896 50.3610075,1.15883669 C50.9151119,1.93139448 51.3768657,2.94407159 51.7462687,4.19686801 L53.5317164,9.95973154 C53.6548507,10.4608501 53.9216418,10.4399702 54.3320896,9.89709172 L57.9645522,4.7606264 C59.1548507,3.04847129 60.2630597,1.82699478 61.2891791,1.09619687 C62.3152985,0.365398956 63.3003731,0 64.244403,0 C65.3115672,0 66.204291,0.407158837 66.9225746,1.22147651 C67.6408582,2.03579418 68,2.75615213 68,3.38255034 C68,4.09246831 67.8255597,4.7606264 67.4766791,5.38702461 C67.1277985,6.01342282 66.7070896,6.52498136 66.2145522,6.92170022 C65.7220149,7.31841909 65.2910448,7.51677852 64.9216418,7.51677852 C64.4291045,7.51677852 64.0904851,7.42281879 63.9057836,7.23489933 C63.7210821,7.04697987 63.5466418,6.80686055 63.3824627,6.51454139 C63.2182836,6.18046234 63.0335821,5.90902312 62.8283582,5.70022371 C62.6231343,5.49142431 62.2947761,5.38702461 61.8432836,5.38702461 C61.5149254,5.38702461 61.1044776,5.49142431 60.6119403,5.70022371 C60.119403,5.90902312 59.4626866,6.45190157 58.641791,7.32885906 C58.0671642,7.91349739 57.4822761,8.62341536 56.8871269,9.45861298 C56.2919776,10.2938106 55.6865672,11.212528 55.0708955,12.2147651 C54.9067164,12.590604 54.7630597,12.945563 54.6399254,13.2796421 C54.516791,13.6137211 54.5373134,14.0521999 54.7014925,14.5950783 L56.4253731,20.98434 C56.630597,21.6524981 56.8358209,22.1014169 57.0410448,22.3310962 C57.2462687,22.5607755 57.4925373,22.6756152 57.7798507,22.6756152 C58.108209,22.6756152 58.5904851,22.393736 59.2266791,21.8299776 C59.8628731,21.2662192 60.5503731,20.3579418 61.2891791,19.1051454 C61.5354478,18.7710664 61.8022388,18.6040268 62.0895522,18.6040268 C62.2537313,18.6040268 62.3871269,18.6771066 62.4897388,18.8232662 C62.5923507,18.9694258 62.6436567,19.2095451 62.6436567,19.5436242 C62.6436567,20.1700224 62.4281716,20.9530201 61.9972015,21.8926174 C61.5662313,22.8322148 60.9710821,23.7718121 60.2117537,24.7114094 C59.4524254,25.6510067 58.5802239,26.4340045 57.5951493,27.0604027 C56.6100746,27.6868009 55.5839552,28 54.516791,28 C53.3675373,28 52.4132463,27.5719612 51.6539179,26.7158837 C50.8945896,25.8598061 50.391791,24.9515287 50.1455224,23.9910515 C49.9813433,23.1976137 49.7966418,22.2684564 49.5914179,21.2035794 C49.386194,20.1387025 49.1809701,19.2095451 48.9757463,18.4161074 C48.8936567,18.1655481 48.801306,17.9985086 48.698694,17.9149888 C48.5960821,17.8314691 48.4421642,17.9149888 48.2369403,18.1655481 C47.6212687,19.0425056 47.0261194,19.940343 46.4514925,20.8590604 C45.8768657,21.7777778 45.261194,22.6547353 44.6044776,23.4899329 C43.5783582,24.9515287 42.4701493,26.0686055 41.2798507,26.8411633 C40.0895522,27.6137211 39.0018657,28 38.016791,28 Z" id="Path"></path>
        </g>
    </g>
</svg>