<svg xmlns="http://www.w3.org/2000/svg" viewBox="0 0 512 512">
    <style>@media (prefers-color-scheme: dark) { #circle { fill: #fff; } #sfux { fill: #000; } }</style>
    <path id="circle" fill="#000" d="M512 256a256 256 0 1 1-512 0 256 256 0 0 1 512 0Z"/>
    <path id="sfux" fill="#fff" d="M392 397.2c-2.8 0-4.9-.8-6.2-2.4a8.4 8.4 0 0 1-2-5.6c0-1.6.4-3.3 1.3-5.1a14.5 14.5 0 0 1 3-4.4 5.5 5.5 0 0 1 3.8-1.7c.6 0 1.2.2 1.9.8a7.2 7.2 0 0 1 1.6 2 7.5 7.5 0 0 0 1.8 1.6 5 5 0 0 0 2.8.7c1 0 2.1-.3 3.3-1a12 12 0 0 0 3.5-2.8l3.5-3.9 4-4.5a66 66 0 0 0 3.6-4.3 5.4 5.4 0 0 0 1-2.1c.1-.6 0-1.4-.3-2.4l-6.3-21.4a5.5 5.5 0 0 0-1-2c-.3-.5-.8-.8-1.3-.8-1.2 0-2.8.8-4.6 2.2a44.2 44.2 0 0 0-5.9 6 7.4 7.4 0 0 1-.9.8 2 2 0 0 1-1 .4 2 2 0 0 1-1.3-.5c-.4-.3-.6-.8-.6-1.4 0-2.1.7-4.5 2-7a32.6 32.6 0 0 1 5-7.3 27.1 27.1 0 0 1 7.3-5.7 18.2 18.2 0 0 1 8.8-2.2c2.7 0 4.8 1 6.3 3a26.6 26.6 0 0 1 3.7 8l4.9 15.3c.3 1.3 1 1.3 2.1-.2l9.8-13.5a40 40 0 0 1 9-9.7c2.7-2 5.3-3 7.8-3a9.3 9.3 0 0 1 7.3 3.3c1.9 2.2 2.8 4 2.8 5.7 0 1.9-.4 3.7-1.4 5.3a13.8 13.8 0 0 1-3.4 4c-1.3 1.1-2.4 1.6-3.4 1.6-1.4 0-2.3-.2-2.8-.7a9 9 0 0 1-1.4-2 8.2 8.2 0 0 0-1.5-2c-.5-.6-1.4-.9-2.6-.9a9 9 0 0 0-3.3.8 20 20 0 0 0-5.3 4.3 46.9 46.9 0 0 0-4.7 5.7 128.7 128.7 0 0 0-5 7.3l-1 2.8c-.4.9-.4 2 0 3.4l4.7 17c.6 1.7 1.1 2.9 1.7 3.5.5.6 1.2.9 2 .9s2.1-.7 3.9-2.2 3.5-4 5.5-7.2c.7-1 1.4-1.4 2.2-1.4.4 0 .8.2 1 .6.3.4.4 1 .4 2 0 1.6-.5 3.7-1.7 6.1a35.4 35.4 0 0 1-4.8 7.5 28.9 28.9 0 0 1-7 6.2 15.4 15.4 0 0 1-8.3 2.5 10 10 0 0 1-7.7-3.4 17.3 17.3 0 0 1-4-7.2l-1.6-7.4c-.5-2.8-1-5.3-1.6-7.4a2.9 2.9 0 0 0-.8-1.3c-.2-.2-.6 0-1.2.7a160.3 160.3 0 0 0-4.8 7.1 79.2 79.2 0 0 1-5 7 33.3 33.3 0 0 1-8.9 8.8c-3.2 2-6.1 3-8.8 3Zm-83.1-.2c-2.2 0-4.3-1-6.2-2.9a15.9 15.9 0 0 1-4-6.7 10 10 0 0 1 .1-7l15.4-35c.7-1.6 1-2.8 1-3.7-.1-1-.6-1.4-1.5-1.4-.6 0-1.7.6-3.5 1.6a59.2 59.2 0 0 0-5.3 3.6 38.7 38.7 0 0 0-4 3.3c-1.4 1.3-2.6 2-3.5 2-1 0-1.4-.5-1.4-1.5 0-1.1.3-2.2.9-3.3l2-3a73 73 0 0 1 10.2-10.4 50 50 0 0 1 11-7 25.3 25.3 0 0 1 10.6-2.6c1.5 0 3 .7 4.6 2.1a13.8 13.8 0 0 1 3.5 5c.8 2 .8 3.7 0 5.3l-7.8 16.8-10.4 22.3a8.6 8.6 0 0 0-1 4.3c.1 1.2.8 1.8 1.9 1.8s2.7-1.1 4.8-3.5a121 121 0 0 0 7.3-9 946.9 946.9 0 0 1 8.3-11 159 159 0 0 0 6.1-8.3 242 242 0 0 0 10-15.6c1.8-2.8 3.5-5.2 5-7.1 1.5-2 3.2-3 5-3 2.1 0 4 .7 5.6 1.9a11.2 11.2 0 0 1 3.7 4.3 6.1 6.1 0 0 1 .3 4.8l-16.5 42.8c-.3.8-.5 1.7-.4 2.4 0 .8.3 1.2.9 1.2.9 0 2.4-.7 4.7-2a76.6 76.6 0 0 0 7-5 64.4 64.4 0 0 0 6-5l.6-.6c.6 0 1 .3 1.5.8s.7 1 .7 1.7c0 1.4-.8 3.1-2.3 5a50.6 50.6 0 0 1-6 6.2 69 69 0 0 1-7.7 5.9 60.6 60.6 0 0 1-8.1 4.5 19.9 19.9 0 0 1-7.1 2 7.4 7.4 0 0 1-4.7.2 11.4 11.4 0 0 1-4.1-2.1c-1.2-1-2.1-2-2.8-3a5.1 5.1 0 0 1-.4-2c0-.7.1-1.6.6-2.5l3-6.7 3.6-8a391.6 391.6 0 0 0 3.6-9c.3-.9.2-1.4-.3-1.5-.6 0-1.1.3-1.7 1.1a473.4 473.4 0 0 1-9.8 13c-3.4 4.3-6.7 8.3-10 11.8a60.4 60.4 0 0 1-10 8.5 16.4 16.4 0 0 1-9 3.2ZM368 94c-26.4 1-49.5 15.3-66.6 35a219.7 219.7 0 0 0-40.7 73.9c-16.3-13.2-28.8-30.2-55-37.6a68 68 0 0 0-60.8 11 53.7 53.7 0 0 0-18.6 26.7c-7.8 25 8.2 47.4 15.5 55.4l16 16.8c3.3 3.3 11.2 12 7.3 24.3-4.2 13.4-20.6 22.1-37.4 17-7.6-2.3-18.4-7.8-16-15.6 1-3.2 3.3-5.5 4.6-8.3 1.1-2.3 1.7-4.1 2-5.1 3.1-10-1.1-22.8-11.9-26.1-10-3-20.3-.6-24.3 12.1-4.5 14.5 2.5 40.7 40.2 52.2 44.1 13.4 81.5-10.3 86.8-41.2 3.3-19.3-5.6-33.7-21.8-52.2L174.2 218a23.5 23.5 0 0 1-2.5-31.7c7-8.7 17-12.4 33.3-8 23.8 6.3 34.5 22.6 52.2 35.8-7.3 23.6-12.1 47.4-16.5 68.7l-2.6 15.8c-12.7 65.5-22.4 101.4-47.5 122-5 3.6-12.3 9-23.2 9.3-5.7.2-7.6-3.7-7.7-5.4-.1-4 3.3-5.8 5.5-7.5 3.4-1.9 8.5-4.8 8.1-14.4-.3-11.4-9.9-21.2-23.6-20.7-10.4.3-26 9.9-25.5 27.4.6 18 17.7 31.6 43.5 30.8 13.8-.5 44.6-6 75-41.6 35.3-40.7 45.2-87.4 52.6-121.6l8.3-45.1c4.6.5 9.6.9 15 1 44 1 66-21.5 66.3-37.8.2-10-6.6-19.6-16.1-19.4-6.9.2-15.4 4.6-17.5 13.9-2 9.1 14 17.3 1.5 25.3-8.9 5.7-24.8 9.7-47.2 6.4l4-22.2c8.4-42.1 18.6-94 57.6-95.2 2.9-.1 13.2.2 13.5 7 0 2.2-.5 2.8-3.2 8-2.7 4-3.8 7.4-3.6 11.3.3 10.8 8.6 17.9 20.7 17.4 16-.5 20.6-15.9 20.4-23.8-.7-18.6-20.6-30.4-47-29.6Z"/>
</svg>
