<svg height="30" viewBox="0 0 161 30" width="161" xmlns="http://www.w3.org/2000/svg"><g fill="none"><g transform="translate(.585 -.002)"><circle cx="15" cy="15" fill="#000" r="15"/><path d="m21.5579581 5.55019236c-1.5234041.05343403-2.8544457.89341693-3.8435095 2.05507267-1.0970006 1.2738672-1.8258407 2.78551577-2.3516316 4.32762187-.9399045-.7705187-1.6650042-1.7675976-3.1729125-2.20255062-1.1664648-.33503135-2.39010399-.19717156-3.51595893.64174262-.53380593.3986179-.90089769 1.0008194-1.07562696 1.5666857-.45312055 1.4715731.4750285 2.7812411.89715731 3.2519949l.92173696.9863921c.19022514.1939655.64708602.6994514.42426617 1.4234825-.24205614.7881519-1.19104445 1.2973782-2.16514676.9976133-.43495298-.1346538-1.06013109-.4579296-.9195996-.9131876.05770875-.187019.19129381-.3275505.26342975-.4873183.06572385-.1389284.09671559-.2425905.11648618-.3035053.17793531-.5813622-.06518951-1.3369193-.68716159-1.5287475-.58082787-.1774009-1.17394557-.0363351-1.40424622.7101383-.26182673.8501353.14480621 2.3895696 2.32117412 3.0612354 2.54987176.7838771 4.70700347-.6054076 5.01264607-2.4157524.1928968-1.13387-.3200698-1.977059-1.257837-3.0612354l-.7641066-.844792c-.463273-.463273-.62197206-1.2514249-.1432032-1.8568324.4044956-.5113636.9799801-.7293745 1.9241593-.4734255 1.3769949.3729695 1.9909519 1.3289043 3.0147478 2.0999573-.4226631 1.386613-.6994514 2.7785694-.9489883 4.0278569l-.1533557.9297521c-.7325805 3.8397692-1.290966 5.9477415-2.7433029 7.1580222-.2922841.2089271-.7112069.5199131-1.34119406.5418211-.33075663.0106868-.43709034-.2169422-.44243375-.3163295-.00748076-.2319037.18862212-.3382374.3184668-.4424337.19396551-.1063337.48731831-.2815973.46754771-.843189-.0219079-.6657879-.5722784-1.2418068-1.36737672-1.2145554-.59685808.0197706-1.50470219.5802935-1.47050441 1.6083642.03526645 1.0601311 1.02379595 1.8557638 2.5146053 1.8044671.79723563-.0261827 2.57658873-.3505272 4.32975923-2.4349886 2.0406454-2.390104 2.6118552-5.1296666 3.0414648-7.1345113l.4787688-2.6465873c.2666358.0315261.5509049.053434.8608222.0603804 2.5418567.0545027 3.8130522-1.262646 3.8328228-2.2201838.0122898-.5797592-.3804503-1.1499002-.9308208-1.1370761-.3932744.0112212-.8880735.2730479-1.0066971.8170063-.1159518.5343403.8089912 1.0163152.0860288 1.4849316-.513501.332894-1.4341693.566935-2.7304787.3767099l.2361784-1.3032559c.4803719-2.47078941 1.0745582-5.51011686 3.3257338-5.58332147.1640424-.00854945.7646409.00748076.7785338.40396124.0037403.13251639-.0288544.16671416-.1838131.47021944-.1586991.23617839-.2180108.43762467-.2110644.66952835.0224423.63052152.5017455 1.04516956 1.1958535 1.02058991.9281491-.03045739 1.1953192-.93402679 1.1803577-1.39890282-.0384725-1.09272585-1.1894415-1.78202479-2.7117769-1.73286549z" fill="#fff"/></g><g fill="#000"><g transform="translate(38.43339 5.568497)"><path d="m53.0995298 5.20928327c3.4593189 0 5.7778213 2.49910943 5.7778213 5.95629093 0 3.2578727-2.3639213 5.9557567-5.7778213 5.9557567-3.4347393 0-5.7986606-2.697884-5.7986606-5.9557567 0-3.4571815 2.3179681-5.95629093 5.7986606-5.95629093zm0 10.21925763c2.4542248 0 3.5464163-2.231405 3.5464163-4.2629667 0-2.16300937-1.31608-4.25976058-3.5464163-4.25976058-2.2527786 0-3.569393 2.09675121-3.569393 4.25976058 0 2.0315617 1.0937945 4.2629667 3.569393 4.2629667z"/><path d="m47.0133941 6.26834568v-.79135793h-3.0126104v-1.08150471c0-1.53943431.2238886-2.70109005 2.0294243-2.70109005.0331291 0 .0683956.00320604.1031277.00480906.0037404 0 .0026717-.00587774.0069464-.00587774.5012112.03633514.9190653-.37136649.946851-.87257766l.0363351-.68716158c-.4237318-.06732688-.8709746-.13358507-1.4053149-.13358507-3.1007766 0-3.8141208 1.80713879-3.8141208 4.57395269v.90303506h-2.6797165v.88326446c.0689299.45792961.4611357.81112853.9393702.81112853.0021374 0 .0048091.00213736.0074808.00213736h1.7328655v9.6817113h1.154175.0037403c.4809063 0 .873112-.3622827.9383016-.8234183v-8.858293h2.0978199c.4937304-.01656455.8907452-.41144201.9153248-.90517242z"/><path d="m19.0802223 5.47698775c-.0032061 0-.0058778.0026717-.0112212.0026717-.441365 0-.8693716.30350527-1.0563907.71441294l-2.8849031 8.69799091h-.0448846l-2.8218509-8.69371619c-.1848817-.41304503-.6144913-.719222-1.0590624-.719222-.0053434 0-.0069464-.0026717-.0112212-.0026717h-1.46248928l3.85953978 10.61947849c.1346537.3799159.4028925.9602095.4028925 1.204403 0 .2244229-.6251781 2.8106298-2.5001781 2.8106298-.0459532 0-.0929752-.0053434-.1383941-.0085495-.4782345-.0261827-.8394486.30778-.9190653.8223497l-.0571744.7261684c.3793816.0667925.7598319.1565617 1.4288259.1565617 2.7657452 0 3.5913009-2.5226204 4.3730408-4.7080721l4.192968-11.62350383h-1.2904317z"/><path d="m5.74950128 7.7880094c-1.73126247-.88593616-3.6265674-1.48813764-3.65969649-3.27069678.0053434-1.89316756 1.74515531-2.39063835 3.0852807-2.38903533.00641209-.00106868.01175549-.00106868.01496153-.00106868.58243089 0 1.04784127.05770875 1.50256484.15763038.00587774 0 .00480906-.00748077.01175548-.00748077.48090624.03526646.88433314-.34037475.94043887-.81380023l.0384725-.68769592c-.87898974-.21801083-1.79752066-.32968795-2.5968937-.32968795-2.91482616.01816757-5.07943859 1.48493161-5.08638501 4.28434027.00320604 2.44727843 1.65218011 3.3957324 3.42725848 4.25495155 1.73981191.83677686 3.64473497 1.52714446 3.66129951 3.54748506-.00961812 2.1069037-2.04331718 2.8833001-3.4448917 2.8865061-.81967797-.003206-1.70935452-.2067897-2.45956826-.4435024-.46968509-.0774794-.85494442.3371687-.91639356.8859362l-.06305215.6123539c1.03074238.332894 2.08713309.6241094 3.14993588.6241094h.00213736.00961813c3.26588771-.0240453 5.80400399-1.3262325 5.81415645-4.7080721-.00374038-2.60864916-1.66500427-3.70458105-3.43099886-4.6022727z"/><path d="m37.4663366 16.8552294h.0026717c.4525862 0 .8303647-.3184668.924943-.7421986v-6.55314907c0-2.47666714-1.0462383-4.3511328-3.9482403-4.3511328-1.0259333 0-2.7433029.58136221-3.5245084 2.20949701-.6016671-1.53943431-1.9182815-2.20949701-3.2332929-2.20949701-1.6740881 0-2.8122329.60220148-3.614812 1.91935024h-.0448845v-.70746651c-.0064121-.52098176-.4280066-.94150755-.9495227-.94150755-.0048091 0-.0069464-.0026717-.0101525-.0026717h-1.0029566v11.37824169h1.1349387.0026717c.5257908 0 .9511257-.4269379.9511257-.95166 0-.0144272.004809-.0197706.0096181-.0293888v-4.7529566c0-2.11865921.8469293-4.21541042 2.9880308-4.21541042 1.694393 0 2.0315617 1.76171987 2.0315617 3.16756912v6.7813123h1.1504346.003206c.4969365 0 .8971573-.3820533.9415076-.8672342v-4.8662368c0-2.11865921.8485323-4.21541042 2.9896338-4.21541042 1.6954616 0 2.030493 1.76171987 2.030493 3.16756912v6.7813123h1.1675335z"/><path d="m69.8730051 16.8552294h.0026717c.5113637 0 .92334-.4039612.9473853-.9099815v-5.8499572c0-3.05589201-1.3176831-4.88654177-4.2624323-4.88654177-1.5837845 0-3.0997079.78173981-3.7259547 2.07644628h-.0438159v-.85013536c0-.00106868-.0021373-.00106868-.0021373-.00320605 0-.52739384-.4269379-.95272869-.9505914-.95272869-.0058777 0-.0069464-.0026717-.0106868-.0026717h-1.0676118v11.37824169h1.1525719.0021374c.4990738 0 .9035694-.3884654.9420419-.8779211v-4.3874679c0-2.76574526 1.0718865-4.68402682 3.4587845-4.68402682 1.8311841.11060844 2.4082716 1.40371189 2.4082716 4.05938302v5.8894984h1.1493659z"/><path d="m81.1625463 5.47698775c-.0053434 0-.0074808.0026717-.0117555.0026717-.4418994 0-.8704403.30350527-1.056925.71441294l-2.8838345 8.69799091h-.0470219l-2.8223853-8.69371619c-.1848817-.41304503-.6144913-.719222-1.0579937-.719222-.0042747 0-.0069464-.0026717-.0106868-.0026717h-1.4624893l3.8600741 10.61947849c.133585.3799159.4034269.9602095.4034269 1.204403 0 .2244229-.6257125 2.8106298-2.5012468 2.8106298-.045419 0-.0913722-.0053434-.1383942-.0085495-.4782345-.0261827-.8378455.30778-.9201339.8223497l-.0561057.7261684c.3788472.0667925.7598318.1565617 1.4293602.1565617 2.7657452 0 3.5907666-2.5226204 4.3730407-4.7080721l4.1940368-11.62350383h-1.2909661z"/></g><g transform="translate(128.593 9.846)"><path d="m2.184 12.544c-.37333333 0-.72333333-.1633333-1.05-.49s-.55533333-.7046667-.686-1.134-.12133333-.8213333.028-1.176l2.604-5.936c.13066667-.28.18666667-.49466667.168-.644s-.10266667-.224-.252-.224c-.09333333 0-.28933333.08866667-.588.266s-.59733333.378-.896.602-.52266667.41066667-.672.56c-.24266667.224-.44333333.336-.602.336s-.238-.084-.238-.252c0-.18666667.05133333-.36866667.154-.546s.21933333-.35.35-.518c.54133333-.672 1.11533333-1.26 1.722-1.764s1.22266667-.90066667 1.848-1.19 1.22733333-.434 1.806-.434c.26133333 0 .52266667.12133333.784.364s.45733333.52733333.588.854.13066667.62066667 0 .882c-.35466667.784-.79333333 1.73133333-1.316 2.842s-1.11066667 2.37533333-1.764 3.794c-.13066667.28-.18666667.52266667-.168.728s.12133333.308.308.308.462-.20066667.826-.602.77466667-.91 1.232-1.526.92866667-1.24133333 1.414-1.876c.35466667-.448.7-.91466667 1.036-1.4s.64866667-.95666667.938-1.414c.2893333-.45733333.5366667-.86333333.742-1.218.3173333-.48533333.602-.89133333.854-1.218s.5366667-.49.854-.49c.3546667 0 .672.10266667.952.308s.4853333.448.616.728.1493333.55066667.056.812l-2.8 7.252c-.056.14933333-.0793333.28933333-.07.42s.0606667.196.154.196c.1493333 0 .4153333-.11666667.798-.35s.784-.51333333 1.204-.84.7513333-.61133333.994-.854c.056-.056.0933333-.084.112-.084.0933333 0 .1773333.042.252.126s.112.182.112.294c0 .24266667-.1306667.52733333-.392.854s-.5973333.672-1.008 1.036-.8493333.7-1.316 1.008-.924.5646667-1.372.77-.84933333.3173333-1.204.336c-.26133333.0933333-.52266667.1026667-.784.028s-.49466667-.196-.7-.364-.364-.336-.476-.504c-.03733333-.0746667-.06066667-.182-.07-.322s.02333333-.2846667.098-.434c.14933333-.336.322-.714.518-1.134s.39666667-.87266667.602-1.358.41066667-.98933333.616-1.512c.056-.168.03733333-.25666667-.056-.266s-.18666667.05133333-.28.182c-.54133333.74666667-1.09666667 1.484-1.666 2.212s-1.13866667 1.39066667-1.708 1.988c-.56933333.5973333-1.12466667 1.078-1.666 1.442s-1.05466667.546-1.54.546z"/><path d="m16.8566946 12.544c-.4666666 0-.812-.1353333-1.036-.406s-.336-.5833333-.336-.938c0-.28.07-.5693333.21-.868s.3126667-.546.518-.742c.2053334-.196.42-.294.644-.294.0933334 0 .196.04666667.308.14s.2053334.20533333.28.336c.0746667.09333333.1773334.182.308.266.1306667.084.2893334.126.476.126.168 0 .35-.0513333.546-.154.196-.10266667.3966667-.266.602-.49.168-.18666667.364-.406.588-.658s.4526667-.50866667.686-.77c.2333334-.26133333.434-.504.602-.728.0933334-.13066667.1493334-.24733333.168-.35.0186667-.10266667 0-.238-.056-.406l-1.064-3.612c-.0373333-.14933333-.0886666-.266-.154-.35-.0653333-.084-.1446666-.126-.238-.126-.2053333 0-.462.126-.77.378s-.6393333.59266667-.994 1.022c-.0373333.03733333-.0886666.07933333-.154.126-.0653333.04666667-.126.07-.182.07-.0746666 0-.1446666-.028-.21-.084-.0653333-.056-.098-.14-.098-.252 0-.35466667.1073334-.74666667.322-1.176.2146667-.42933333.4993334-.84.854-1.232.3546667-.392.7653334-.714 1.232-.966.4666667-.252.9613334-.378 1.484-.378.4666667 0 .826.17266667 1.078.518s.462.798.63 1.358l.812 2.576c.056.224.1773334.21466667.364-.028l1.652-2.296c.5413334-.76533333 1.0453334-1.31133333 1.512-1.638.4666667-.32666667.9146667-.49 1.344-.49.4853334 0 .8913334.182 1.218.546.3266667.364.49.686.49.966 0 .31733333-.0793333.616-.238.896-.1586666.28-.35.50866667-.574.686s-.42.266-.588.266c-.224 0-.378-.042-.462-.126s-.1633333-.19133333-.238-.322c-.0746666-.14933333-.1586666-.27066667-.252-.364-.0933333-.09333333-.2426666-.14-.448-.14-.1493333 0-.336.04666667-.56.14s-.5226666.336-.896.728c-.2613333.26133333-.5273333.57866667-.798.952-.2706666.37333333-.546.784-.826 1.232-.0746666.168-.14.32666667-.196.476s-.0466666.34533333.028.588l.784 2.856c.0933334.29866667.1866667.49933333.28.602.0933334.1026667.2053334.154.336.154.1493334 0 .3686667-.126.658-.378.2893334-.252.602-.658.938-1.218.112-.14933333.2333334-.224.364-.224.0746667 0 .1353334.03266667.182.098.0466667.06533333.07.17266667.07.322 0 .28-.098.63-.294 1.05s-.4666666.84-.812 1.26c-.3453333.42-.742.77-1.19 1.05s-.9146666.42-1.4.42c-.5226666 0-.9566666-.1913333-1.302-.574-.3453333-.3826667-.574-.7886667-.686-1.218-.0746666-.3546667-.1586666-.77-.252-1.246-.0933333-.476-.1866666-.89133333-.28-1.246-.0373333-.112-.0793333-.18666667-.126-.224-.0466666-.03733333-.1166666 0-.21.112-.28.392-.5506666.79333333-.812 1.204-.2613333.41066667-.5413333.8026667-.84 1.176-.4666666.6533333-.9706666 1.1526667-1.512 1.498-.5413333.3453333-1.036.518-1.484.518z"/></g></g></g></svg>