<?xml version="1.0" encoding="UTF-8"?>
<svg width="161px" height="30px" viewBox="0 0 161 30" version="1.1" xmlns="http://www.w3.org/2000/svg" xmlns:xlink="http://www.w3.org/1999/xlink">
    <title>Artboard Copy 40</title>
    <g id="Artboard-Copy-40" stroke="none" stroke-width="1" fill="none" fill-rule="evenodd">
        <g id="symfony_black_02" transform="translate(0.585000, -0.002000)" fill="#FFFFFF" fill-rule="nonzero">
            <g id="Group">
                <g id="Combined-Shape">
                    <path d="M15,0 C23.2842712,0 30,6.71572875 30,15 C30,23.2842712 23.2842712,30 15,30 C6.71572875,30 0,23.2842712 0,15 C0,6.71572875 6.71572875,0 15,0 Z M21.5579581,5.55019236 C20.034554,5.60362639 18.7035124,6.44360929 17.7144486,7.60526503 C16.617448,8.87913223 15.8886079,10.3907808 15.362817,11.9328869 C14.4229125,11.1623682 13.6978128,10.1652893 12.1899045,9.73033628 C11.0234397,9.39530493 9.79980051,9.53316472 8.67394557,10.3720789 C8.14013964,10.7706968 7.77304788,11.3728983 7.59831861,11.9387646 C7.14519806,13.4103377 8.07334711,14.7200057 8.49547592,15.1907595 L9.41721288,16.1771516 C9.60743802,16.3711171 10.0642989,16.876603 9.84147905,17.6006341 C9.59942291,18.388786 8.6504346,18.8980123 7.67633229,18.5982474 C7.24137931,18.4635936 6.6162012,18.1403178 6.75673269,17.6850598 C6.81444144,17.4980408 6.9480265,17.3575093 7.02016244,17.1977415 C7.08588629,17.0588131 7.11687803,16.955151 7.13664862,16.8942362 C7.31458393,16.312874 7.07145911,15.5573169 6.44948703,15.3654887 C5.86865916,15.1880878 5.27554146,15.3291536 5.04524081,16.075627 C4.78341408,16.9257623 5.19004702,18.4651966 7.36641493,19.1368624 C9.91628669,19.9207395 12.0734184,18.5314548 12.379061,16.72111 C12.5719578,15.58724 12.0589912,14.744051 11.121224,13.6598746 L10.3571174,12.8150826 C9.8938444,12.3518096 9.73514534,11.5636577 10.2139142,10.9582502 C10.6184098,10.4468866 11.1938943,10.2288757 12.1380735,10.4848247 C13.5150684,10.8577942 14.1290254,11.813729 15.1528213,12.584782 C14.7301582,13.971395 14.4533699,15.3633514 14.203833,16.6126389 L14.0504773,17.542391 C13.3178968,21.3821602 12.7595113,23.4901325 11.3071744,24.7004132 C11.0148903,24.9093403 10.5959675,25.2203263 9.96598034,25.2422343 C9.63522371,25.2529211 9.52889,25.0252921 9.52354659,24.9259048 C9.51606583,24.6940011 9.71216871,24.5876674 9.84201339,24.4834711 C10.0359789,24.3771374 10.3293317,24.2018738 10.3095611,23.6402821 C10.2876532,22.9744942 9.7372827,22.3984753 8.94218438,22.4257267 C8.3453263,22.4454973 7.43748219,23.0060202 7.47167997,24.0340909 C7.50694642,25.094222 8.49547592,25.8898547 9.98628527,25.838558 C10.7835209,25.8123753 12.562874,25.4880308 14.3160445,23.4035694 C16.3566899,21.0134654 16.9278997,18.2739028 17.3575093,16.2690581 L17.8362781,13.6224708 C18.1029139,13.6539969 18.387183,13.6759048 18.6971003,13.6828512 C21.238957,13.7373539 22.5101525,12.4202052 22.5299231,11.4626674 C22.5422129,10.8829082 22.1494728,10.3127672 21.5991023,10.3255913 C21.2058279,10.3368125 20.7110288,10.5986392 20.5924052,11.1425976 C20.4764534,11.6769379 21.4013964,12.1589128 20.678434,12.6275292 C20.164933,12.9604232 19.2442647,13.1944642 17.9479553,13.0042391 L18.1841337,11.7009832 C18.6645056,9.23019379 19.2586919,6.19086634 21.5098675,6.11766173 C21.6739099,6.10911228 22.2745084,6.12514249 22.2884013,6.52162297 C22.2921416,6.65413936 22.2595469,6.68833713 22.1045882,6.99184241 C21.9458891,7.2280208 21.8865774,7.42946708 21.8935238,7.66137076 C21.9159661,8.29189228 22.3952693,8.70654032 23.0893773,8.68196067 C24.0175264,8.65150328 24.2846965,7.74793388 24.269735,7.28305785 C24.2312625,6.190332 23.0802935,5.50103306 21.5579581,5.55019236 Z"></path>
                </g>
                <g transform="translate(37.848390, 5.570497)">
                    <path d="M53.0995298,5.20928327 C56.5588487,5.20928327 58.8773511,7.7083927 58.8773511,11.1655742 C58.8773511,14.4234469 56.5134298,17.1213309 53.0995298,17.1213309 C49.6647905,17.1213309 47.3008692,14.4234469 47.3008692,11.1655742 C47.3008692,7.7083927 49.6188373,5.20928327 53.0995298,5.20928327 Z M53.0995298,15.4285409 C55.5537546,15.4285409 56.6459461,13.1971359 56.6459461,11.1655742 C56.6459461,9.00256483 55.3298661,6.90581362 53.0995298,6.90581362 C50.8467512,6.90581362 49.5301368,9.00256483 49.5301368,11.1655742 C49.5301368,13.1971359 50.6239313,15.4285409 53.0995298,15.4285409 Z" id="Shape"></path>
                    <path d="M47.0133941,6.26834568 L47.0133941,5.47698775 L44.0007837,5.47698775 L44.0007837,4.39548304 C44.0007837,2.85604873 44.2246723,1.69439299 46.030208,1.69439299 C46.0633371,1.69439299 46.0986036,1.69759903 46.1333357,1.69920205 C46.1370761,1.69920205 46.1360074,1.69332431 46.1402821,1.69332431 C46.6414933,1.72965945 47.0593474,1.32195782 47.0871331,0.820746651 L47.1234682,0.133585067 C46.6997364,0.0662581932 46.2524936,0 45.7181533,0 C42.6173767,0 41.9040325,1.80713879 41.9040325,4.57395269 L41.9040325,5.47698775 L39.224316,5.47698775 L39.224316,6.36025221 C39.2932459,6.81818182 39.6854517,7.17138074 40.1636862,7.17138074 C40.1658236,7.17138074 40.1684953,7.1735181 40.171167,7.1735181 L41.9040325,7.1735181 L41.9040325,16.8552294 L43.0582075,16.8552294 C43.0608792,16.8552294 43.0592761,16.8552294 43.0619478,16.8552294 C43.5428541,16.8552294 43.9350598,16.4929467 44.0002494,16.0318111 L44.0002494,7.1735181 L46.0980693,7.1735181 C46.5917997,7.15695355 46.9888145,6.76207609 47.0133941,6.26834568 Z" id="Path"></path>
                    <path d="M19.0802223,5.47698775 C19.0770162,5.47698775 19.0743445,5.47965945 19.0690011,5.47965945 C18.6276361,5.47965945 18.1996295,5.78316472 18.0126104,6.19407239 L15.1277073,14.8920633 L15.0828227,14.8920633 L12.2609718,6.19834711 C12.0760901,5.78530208 11.6464805,5.47912511 11.2019094,5.47912511 C11.196566,5.47912511 11.194963,5.47645341 11.1906882,5.47645341 L9.72819892,5.47645341 L13.5877387,16.0959319 C13.7223924,16.4758478 13.9906312,17.0561414 13.9906312,17.3003349 C13.9906312,17.5247578 13.3654531,20.1109647 11.4904531,20.1109647 C11.4444999,20.1109647 11.3974779,20.1056213 11.352059,20.1024152 C10.8738245,20.0762325 10.5126104,20.4101952 10.4329937,20.9247649 L10.3758193,21.6509333 C10.7552009,21.7177258 11.1356512,21.807495 11.8046452,21.807495 C14.5703904,21.807495 15.3959461,19.2848746 16.177686,17.0994229 L20.370654,5.47591907 L19.0802223,5.47591907 L19.0802223,5.47698775 Z" id="Path"></path>
                    <path d="M5.74950128,7.7880094 C4.01823881,6.90207324 2.12293388,6.29987176 2.08980479,4.51731262 C2.09514819,2.62414506 3.8349601,2.12667427 5.17508549,2.12827729 C5.18149758,2.12720861 5.18684098,2.12720861 5.19004702,2.12720861 C5.77247791,2.12720861 6.23788829,2.18491736 6.69261186,2.28483899 C6.6984896,2.28483899 6.69742092,2.27735822 6.70436734,2.27735822 C7.18527358,2.31262468 7.58870048,1.93698347 7.64480621,1.46355799 L7.68327871,0.775862069 C6.80428897,0.55785124 5.88575805,0.446174124 5.08638501,0.446174124 C2.17155885,0.464341693 0.00694642348,1.93110573 0,4.73051439 C0.00320604161,7.17779282 1.65218011,8.12624679 3.42725848,8.98546594 C5.16707039,9.8222428 7.07199345,10.5126104 7.08855799,12.532951 C7.07893987,14.6398547 5.04524081,15.4162511 3.64366629,15.4194571 C2.82398832,15.4162511 1.93431177,15.2126674 1.18409803,14.9759547 C0.714412938,14.8984753 0.329153605,15.3131234 0.267704474,15.8618909 L0.204652323,16.4742448 C1.2353947,16.8071388 2.29178541,17.0983542 3.3545882,17.0983542 C3.3545882,17.0983542 3.35565688,17.0983542 3.35672556,17.0983542 C3.35939726,17.0983542 3.36313765,17.0983542 3.36634369,17.0983542 C6.6322314,17.0743089 9.17034768,15.7721217 9.18050014,12.3902821 C9.17675976,9.78163294 7.51549587,8.68570105 5.74950128,7.7880094 Z" id="Path"></path>
                    <path d="M37.4663366,16.8552294 C37.4679396,16.8552294 37.4679396,16.8552294 37.4690083,16.8552294 C37.9215945,16.8552294 38.299373,16.5367626 38.3939513,16.1130308 L38.3939513,9.55988173 C38.3939513,7.08321459 37.347713,5.20874893 34.445711,5.20874893 C33.4197777,5.20874893 31.7024081,5.79011114 30.9212026,7.41824594 C30.3195355,5.87881163 29.0029211,5.20874893 27.6879097,5.20874893 C26.0138216,5.20874893 24.8756768,5.81095041 24.0730977,7.12809917 L24.0282132,7.12809917 L24.0282132,6.42063266 C24.0218011,5.8996509 23.6002066,5.47912511 23.0786905,5.47912511 C23.0738814,5.47912511 23.0717441,5.47645341 23.068538,5.47645341 L22.0655814,5.47645341 L22.0655814,16.8546951 L23.2005201,16.8546951 C23.2021231,16.8546951 23.2021231,16.8546951 23.2031918,16.8546951 C23.7289826,16.8546951 24.1543175,16.4277572 24.1543175,15.9030351 C24.1543175,15.8886079 24.1591265,15.8832645 24.1639356,15.8736463 L24.1639356,11.1206897 C24.1639356,9.00203049 25.0108649,6.90527928 27.1519664,6.90527928 C28.8463594,6.90527928 29.1835281,8.66699915 29.1835281,10.0728484 L29.1835281,16.8541607 L30.3339627,16.8541607 C30.3350313,16.8541607 30.3350313,16.8541607 30.3371687,16.8541607 C30.8341052,16.8541607 31.234326,16.4721074 31.2786763,15.9869265 L31.2786763,11.1206897 C31.2786763,9.00203049 32.1272086,6.90527928 34.2683101,6.90527928 C35.9637717,6.90527928 36.2988031,8.66699915 36.2988031,10.0728484 L36.2988031,16.8541607 L37.4663366,16.8541607 L37.4663366,16.8552294 Z" id="Path"></path>
                    <path d="M69.8730051,16.8552294 C69.8740738,16.8552294 69.8740738,16.8552294 69.8756768,16.8552294 C70.3870405,16.8552294 70.7990168,16.4512682 70.8230621,15.9452479 L70.8230621,10.0952907 C70.8230621,7.03939869 69.505379,5.20874893 66.5606298,5.20874893 C64.9768453,5.20874893 63.4609219,5.99048874 62.8346751,7.28519521 L62.7908592,7.28519521 L62.7908592,6.43505985 C62.7908592,6.43399117 62.7887219,6.43399117 62.7887219,6.4318538 C62.7887219,5.90445996 62.361784,5.47912511 61.8381305,5.47912511 C61.8322528,5.47912511 61.8311841,5.47645341 61.8274437,5.47645341 L60.7598319,5.47645341 L60.7598319,16.8546951 L61.9124038,16.8546951 C61.9124038,16.8546951 61.9124038,16.8546951 61.9145412,16.8546951 C62.413615,16.8546951 62.8181106,16.4662297 62.8565831,15.976774 L62.8565831,11.5893061 C62.8565831,8.82356084 63.9284696,6.90527928 66.3153676,6.90527928 C68.1465517,7.01588772 68.7236392,8.30899117 68.7236392,10.9646623 L68.7236392,16.8541607 L69.8730051,16.8541607 L69.8730051,16.8552294 Z" id="Path"></path>
                    <path d="M81.1625463,5.47698775 C81.1572029,5.47698775 81.1550655,5.47965945 81.1507908,5.47965945 C80.7088914,5.47965945 80.2803505,5.78316472 80.0938658,6.19407239 L77.2100313,14.8920633 L77.1630094,14.8920633 L74.3406241,6.19834711 C74.1557424,5.78530208 73.7261328,5.47912511 73.2826304,5.47912511 C73.2783557,5.47912511 73.275684,5.47645341 73.2719436,5.47645341 L71.8094543,5.47645341 L75.6695284,16.0959319 C75.8031134,16.4758478 76.0729553,17.0561414 76.0729553,17.3003349 C76.0729553,17.5247578 75.4472428,20.1109647 73.5717085,20.1109647 C73.5262895,20.1109647 73.4803363,20.1056213 73.4333143,20.1024152 C72.9550798,20.0762325 72.5954688,20.4101952 72.5131804,20.9247649 L72.4570747,21.6509333 C72.8359219,21.7177258 73.2169065,21.807495 73.8864349,21.807495 C76.6521801,21.807495 77.4772015,19.2848746 78.2594756,17.0994229 L82.4535124,5.47591907 L81.1625463,5.47591907 L81.1625463,5.47698775 Z" id="Path"></path>
                </g>
            </g>
            <g id="ux" transform="translate(128.008000, 9.848000)">
                <path d="M2.184,12.544 C1.81066667,12.544 1.46066667,12.3806667 1.134,12.054 C0.807333333,11.7273333 0.578666667,11.3493333 0.448,10.92 C0.317333333,10.4906667 0.326666667,10.0986667 0.476,9.744 L3.08,3.808 C3.21066667,3.528 3.26666667,3.31333333 3.248,3.164 C3.22933333,3.01466667 3.14533333,2.94 2.996,2.94 C2.90266667,2.94 2.70666667,3.02866667 2.408,3.206 C2.10933333,3.38333333 1.81066667,3.584 1.512,3.808 C1.21333333,4.032 0.989333333,4.21866667 0.84,4.368 C0.597333333,4.592 0.396666667,4.704 0.238,4.704 C0.0793333333,4.704 0,4.62 0,4.452 C0,4.26533333 0.0513333333,4.08333333 0.154,3.906 C0.256666667,3.72866667 0.373333333,3.556 0.504,3.388 C1.04533333,2.716 1.61933333,2.128 2.226,1.624 C2.83266667,1.12 3.44866667,0.723333333 4.074,0.434 C4.69933333,0.144666667 5.30133333,0 5.88,0 C6.14133333,0 6.40266667,0.121333333 6.664,0.364 C6.92533333,0.606666667 7.12133333,0.891333333 7.252,1.218 C7.38266667,1.54466667 7.38266667,1.83866667 7.252,2.1 C6.89733333,2.884 6.45866667,3.83133333 5.936,4.942 C5.41333333,6.05266667 4.82533333,7.31733333 4.172,8.736 C4.04133333,9.016 3.98533333,9.25866667 4.004,9.464 C4.02266667,9.66933333 4.12533333,9.772 4.312,9.772 C4.49866667,9.772 4.774,9.57133333 5.138,9.17 C5.502,8.76866667 5.91266667,8.26 6.37,7.644 C6.82733333,7.028 7.29866667,6.40266667 7.784,5.768 C8.13866667,5.32 8.484,4.85333333 8.82,4.368 C9.156,3.88266667 9.46866667,3.41133333 9.758,2.954 C10.0473333,2.49666667 10.2946667,2.09066667 10.5,1.736 C10.8173333,1.25066667 11.102,0.844666667 11.354,0.518 C11.606,0.191333333 11.8906667,0.028 12.208,0.028 C12.5626667,0.028 12.88,0.130666667 13.16,0.336 C13.44,0.541333333 13.6453333,0.784 13.776,1.064 C13.9066667,1.344 13.9253333,1.61466667 13.832,1.876 L11.032,9.128 C10.976,9.27733333 10.9526667,9.41733333 10.962,9.548 C10.9713333,9.67866667 11.0226667,9.744 11.116,9.744 C11.2653333,9.744 11.5313333,9.62733333 11.914,9.394 C12.2966667,9.16066667 12.698,8.88066667 13.118,8.554 C13.538,8.22733333 13.8693333,7.94266667 14.112,7.7 C14.168,7.644 14.2053333,7.616 14.224,7.616 C14.3173333,7.616 14.4013333,7.658 14.476,7.742 C14.5506667,7.826 14.588,7.924 14.588,8.036 C14.588,8.27866667 14.4573333,8.56333333 14.196,8.89 C13.9346667,9.21666667 13.5986667,9.562 13.188,9.926 C12.7773333,10.29 12.3386667,10.626 11.872,10.934 C11.4053333,11.242 10.948,11.4986667 10.5,11.704 C10.052,11.9093333 9.65066667,12.0213333 9.296,12.04 C9.03466667,12.1333333 8.77333333,12.1426667 8.512,12.068 C8.25066667,11.9933333 8.01733333,11.872 7.812,11.704 C7.60666667,11.536 7.448,11.368 7.336,11.2 C7.29866667,11.1253333 7.27533333,11.018 7.266,10.878 C7.25666667,10.738 7.28933333,10.5933333 7.364,10.444 C7.51333333,10.108 7.686,9.73 7.882,9.31 C8.078,8.89 8.27866667,8.43733333 8.484,7.952 C8.68933333,7.46666667 8.89466667,6.96266667 9.1,6.44 C9.156,6.272 9.13733333,6.18333333 9.044,6.174 C8.95066667,6.16466667 8.85733333,6.22533333 8.764,6.356 C8.22266667,7.10266667 7.66733333,7.84 7.098,8.568 C6.52866667,9.296 5.95933333,9.95866667 5.39,10.556 C4.82066667,11.1533333 4.26533333,11.634 3.724,11.998 C3.18266667,12.362 2.66933333,12.544 2.184,12.544 Z" id="Path"></path>
                <path d="M16.8566946,12.544 C16.390028,12.544 16.0446946,12.4086667 15.8206946,12.138 C15.5966946,11.8673333 15.4846946,11.5546667 15.4846946,11.2 C15.4846946,10.92 15.5546946,10.6306667 15.6946946,10.332 C15.8346946,10.0333333 16.0073613,9.786 16.2126946,9.59 C16.418028,9.394 16.6326946,9.296 16.8566946,9.296 C16.950028,9.296 17.0526946,9.34266667 17.1646946,9.436 C17.2766946,9.52933333 17.370028,9.64133333 17.4446946,9.772 C17.5193613,9.86533333 17.622028,9.954 17.7526946,10.038 C17.8833613,10.122 18.042028,10.164 18.2286946,10.164 C18.3966946,10.164 18.5786946,10.1126667 18.7746946,10.01 C18.9706946,9.90733333 19.1713613,9.744 19.3766946,9.52 C19.5446946,9.33333333 19.7406946,9.114 19.9646946,8.862 C20.1886946,8.61 20.4173613,8.35333333 20.6506946,8.092 C20.884028,7.83066667 21.0846946,7.588 21.2526946,7.364 C21.346028,7.23333333 21.402028,7.11666667 21.4206946,7.014 C21.4393613,6.91133333 21.4206946,6.776 21.3646946,6.608 L20.3006946,2.996 C20.2633613,2.84666667 20.212028,2.73 20.1466946,2.646 C20.0813613,2.562 20.002028,2.52 19.9086946,2.52 C19.7033613,2.52 19.4466946,2.646 19.1386946,2.898 C18.8306946,3.15 18.4993613,3.49066667 18.1446946,3.92 C18.1073613,3.95733333 18.056028,3.99933333 17.9906946,4.046 C17.9253613,4.09266667 17.8646946,4.116 17.8086946,4.116 C17.734028,4.116 17.664028,4.088 17.5986946,4.032 C17.5333613,3.976 17.5006946,3.892 17.5006946,3.78 C17.5006946,3.42533333 17.608028,3.03333333 17.8226946,2.604 C18.0373613,2.17466667 18.322028,1.764 18.6766946,1.372 C19.0313613,0.98 19.442028,0.658 19.9086946,0.406 C20.3753613,0.154 20.870028,0.028 21.3926946,0.028 C21.8593613,0.028 22.2186946,0.200666667 22.4706946,0.546 C22.7226946,0.891333333 22.9326946,1.344 23.1006946,1.904 L23.9126946,4.48 C23.9686946,4.704 24.090028,4.69466667 24.2766946,4.452 L25.9286946,2.156 C26.470028,1.39066667 26.974028,0.844666667 27.4406946,0.518 C27.9073613,0.191333333 28.3553613,0.028 28.7846946,0.028 C29.270028,0.028 29.676028,0.21 30.0026946,0.574 C30.3293613,0.938 30.4926946,1.26 30.4926946,1.54 C30.4926946,1.85733333 30.4133613,2.156 30.2546946,2.436 C30.096028,2.716 29.9046946,2.94466667 29.6806946,3.122 C29.4566946,3.29933333 29.2606946,3.388 29.0926946,3.388 C28.8686946,3.388 28.7146946,3.346 28.6306946,3.262 C28.5466946,3.178 28.4673613,3.07066667 28.3926946,2.94 C28.318028,2.79066667 28.234028,2.66933333 28.1406946,2.576 C28.0473613,2.48266667 27.898028,2.436 27.6926946,2.436 C27.5433613,2.436 27.3566946,2.48266667 27.1326946,2.576 C26.9086946,2.66933333 26.610028,2.912 26.2366946,3.304 C25.9753613,3.56533333 25.7093613,3.88266667 25.4386946,4.256 C25.168028,4.62933333 24.8926946,5.04 24.6126946,5.488 C24.538028,5.656 24.4726946,5.81466667 24.4166946,5.964 C24.3606946,6.11333333 24.370028,6.30933333 24.4446946,6.552 L25.2286946,9.408 C25.322028,9.70666667 25.4153613,9.90733333 25.5086946,10.01 C25.602028,10.1126667 25.714028,10.164 25.8446946,10.164 C25.994028,10.164 26.2133613,10.038 26.5026946,9.786 C26.792028,9.534 27.1046946,9.128 27.4406946,8.568 C27.5526946,8.41866667 27.674028,8.344 27.8046946,8.344 C27.8793613,8.344 27.940028,8.37666667 27.9866946,8.442 C28.0333613,8.50733333 28.0566946,8.61466667 28.0566946,8.764 C28.0566946,9.044 27.9586946,9.394 27.7626946,9.814 C27.5666946,10.234 27.296028,10.654 26.9506946,11.074 C26.6053613,11.494 26.2086946,11.844 25.7606946,12.124 C25.3126946,12.404 24.846028,12.544 24.3606946,12.544 C23.838028,12.544 23.404028,12.3526667 23.0586946,11.97 C22.7133613,11.5873333 22.4846946,11.1813333 22.3726946,10.752 C22.298028,10.3973333 22.214028,9.982 22.1206946,9.506 C22.0273613,9.03 21.934028,8.61466667 21.8406946,8.26 C21.8033613,8.148 21.7613613,8.07333333 21.7146946,8.036 C21.668028,7.99866667 21.598028,8.036 21.5046946,8.148 C21.2246946,8.54 20.954028,8.94133333 20.6926946,9.352 C20.4313613,9.76266667 20.1513613,10.1546667 19.8526946,10.528 C19.386028,11.1813333 18.882028,11.6806667 18.3406946,12.026 C17.7993613,12.3713333 17.3046946,12.544 16.8566946,12.544 Z" id="Path"></path>
            </g>
        </g>
    </g>
</svg>