<svg xmlns="http://www.w3.org/2000/svg" viewBox="0 0 161 30" fill="currentColor">
    <path d="M15.59 0a15 15 0 1 1 0 30 15 15 0 0 1 0-30Zm6.55 5.55A5.4 5.4 0 0 0 18.3 7.6a12.95 12.95 0 0 0-2.35 4.33c-.94-.77-1.67-1.77-3.18-2.2a3.88 3.88 0 0 0-3.51.64c-.53.4-.9 1-1.08 1.57-.45 1.47.48 2.78.9 3.25l.92.99c.2.19.65.7.43 1.42-.25.79-1.2 1.3-2.17 1-.43-.14-1.06-.46-.92-.92.06-.18.2-.32.27-.48l.11-.3c.18-.59-.06-1.34-.69-1.54-.58-.17-1.17-.03-1.4.71-.26.85.15 2.4 2.32 3.06 2.55.79 4.7-.6 5.01-2.41.2-1.13-.32-1.98-1.25-3.06l-.77-.85a1.4 1.4 0 0 1-.14-1.85c.4-.52.98-.73 1.92-.48 1.38.38 2 1.33 3.02 2.1-.42 1.39-.7 2.78-.95 4.03l-.15.93c-.74 3.84-1.3 5.95-2.75 7.16-.29.2-.7.52-1.34.54-.33.01-.44-.22-.44-.32 0-.23.19-.33.32-.44.2-.1.48-.28.46-.84a1.27 1.27 0 0 0-1.36-1.22c-.6.02-1.5.58-1.47 1.61.03 1.06 1.02 1.86 2.51 1.8.8-.02 2.58-.34 4.33-2.43 2.04-2.39 2.61-5.13 3.04-7.13l.48-2.65a9 9 0 0 0 .86.06c2.54.06 3.82-1.26 3.83-2.22.02-.58-.38-1.15-.93-1.14-.39.01-.88.28-1 .82-.12.53.8 1.02.08 1.49-.51.33-1.43.56-2.73.37l.24-1.3c.48-2.47 1.07-5.51 3.32-5.58.17-.01.77 0 .78.4 0 .13-.03.17-.18.47-.16.24-.22.44-.21.67.02.63.5 1.04 1.2 1.02.92-.03 1.19-.93 1.17-1.4-.03-1.1-1.18-1.78-2.7-1.73Zm69.39 5.23c3.46 0 5.78 2.5 5.78 5.95 0 3.26-2.36 5.96-5.78 5.96-3.43 0-5.8-2.7-5.8-5.96 0-3.45 2.32-5.95 5.8-5.95Zm0 10.22c2.46 0 3.55-2.23 3.55-4.27 0-2.16-1.32-4.26-3.55-4.26-2.25 0-3.57 2.1-3.57 4.26 0 2.04 1.1 4.27 3.57 4.27Zm-6.08-9.16v-.8h-3.02V9.97c0-1.54.23-2.7 2.03-2.7h.11a.9.9 0 0 0 .95-.87l.04-.69a8.56 8.56 0 0 0-1.4-.13c-3.1 0-3.82 1.8-3.82 4.57v.9h-2.68v.89c.07.46.46.81.94.81h1.74v9.68h1.15c.49 0 .88-.36.94-.82v-8.86h2.1c.5-.01.9-.4.92-.9Zm-27.94-.79c-.45 0-.88.3-1.06.71l-2.89 8.7h-.04l-2.83-8.7a1.21 1.21 0 0 0-1.05-.71h-1.48l3.86 10.61c.14.38.4.96.4 1.2 0 .23-.62 2.82-2.5 2.82h-.13c-.48-.04-.84.3-.92.81l-.06.73c.38.07.76.16 1.43.16 2.76 0 3.59-2.53 4.37-4.71l4.2-11.63h-1.3Zm-13.33 2.31c-1.73-.89-3.62-1.5-3.66-3.27 0-1.9 1.75-2.4 3.09-2.4h.01c.59 0 1.05.06 1.5.16h.02a.9.9 0 0 0 .94-.82l.04-.69a11.1 11.1 0 0 0-2.6-.33c-2.92.02-5.08 1.49-5.09 4.29 0 2.45 1.66 3.4 3.43 4.25 1.74.84 3.65 1.53 3.66 3.55 0 2.1-2.04 2.88-3.44 2.89-.82 0-1.71-.2-2.46-.45-.47-.07-.86.34-.92.89l-.06.61c1.03.34 2.09.63 3.15.63h.01c3.27-.03 5.8-1.33 5.81-4.71 0-2.61-1.66-3.7-3.43-4.6Zm31.72 9.06c.45 0 .83-.31.93-.74v-6.55c0-2.48-1.05-4.35-3.95-4.35-1.03 0-2.74.58-3.53 2.2a3.36 3.36 0 0 0-3.23-2.2c-1.67 0-2.81.6-3.61 1.92h-.05v-.71a.95.95 0 0 0-.95-.94H60.5v11.37h1.13c.53 0 .96-.42.96-.95V16.7c0-2.12.85-4.22 3-4.22 1.69 0 2.03 1.77 2.03 3.17v6.78h1.15c.5 0 .9-.38.94-.86V16.7c0-2.12.85-4.22 3-4.22 1.69 0 2.02 1.77 2.02 3.17v6.78h1.17Zm32.4 0c.52 0 .93-.4.96-.9v-5.86c0-3.05-1.32-4.88-4.27-4.88-1.58 0-3.1.78-3.72 2.07h-.05V12a.95.95 0 0 0-.95-.95h-1.08v11.37h1.16c.5 0 .9-.39.94-.87v-4.4c0-2.76 1.07-4.68 3.46-4.68 1.83.11 2.4 1.4 2.4 4.06v5.9h1.16Zm11.3-11.37h-.02c-.44 0-.87.3-1.05.71l-2.89 8.7h-.04l-2.83-8.7a1.21 1.21 0 0 0-1.05-.71h-1.48l3.86 10.61c.14.38.4.96.4 1.2 0 .23-.62 2.82-2.5 2.82h-.13c-.48-.04-.84.3-.92.81l-.06.73c.38.07.76.16 1.43.16 2.77 0 3.6-2.53 4.37-4.71l4.2-11.63h-1.3Zm11.18 11.34c-.38 0-.73-.16-1.05-.49a2.7 2.7 0 0 1-.69-1.13 1.7 1.7 0 0 1 .03-1.18l2.6-5.94c.13-.28.19-.5.17-.64-.02-.15-.1-.22-.25-.22-.1 0-.29.08-.59.26a10.03 10.03 0 0 0-1.57 1.16c-.24.23-.44.34-.6.34-.16 0-.24-.08-.24-.25 0-.19.05-.37.16-.55.1-.18.22-.35.35-.52.54-.67 1.11-1.26 1.72-1.76.6-.5 1.22-.9 1.85-1.19a4.3 4.3 0 0 1 1.8-.43c.26 0 .53.12.79.36s.45.53.59.85c.13.33.13.62 0 .89l-1.32 2.84c-.52 1.1-1.11 2.37-1.76 3.8-.14.27-.2.51-.17.72.02.2.12.3.3.3.2 0 .47-.2.83-.6.37-.4.78-.9 1.23-1.52l1.42-1.88a27.18 27.18 0 0 0 1.97-2.81 19.49 19.49 0 0 1 1.6-2.44c.25-.32.53-.49.85-.49.36 0 .67.1.95.31.28.2.49.45.62.73.13.28.15.55.06.81l-2.8 7.25a1 1 0 0 0-.07.42c0 .13.06.2.15.2.15 0 .41-.12.8-.35a13 13 0 0 0 2.2-1.7l.1-.08c.1 0 .18.04.26.13.07.08.11.18.11.3 0 .23-.13.52-.4.85a11.68 11.68 0 0 1-3.7 2.81c-.44.2-.84.32-1.2.34-.25.09-.51.1-.77.02-.27-.07-.5-.2-.7-.36a2.45 2.45 0 0 1-.48-.5.87.87 0 0 1-.07-.33.77.77 0 0 1 .1-.43l.52-1.13a40.95 40.95 0 0 0 1.21-2.87c.06-.17.04-.26-.05-.27-.1 0-.19.05-.28.18a76.1 76.1 0 0 1-1.67 2.21c-.57.73-1.14 1.4-1.7 2-.58.59-1.13 1.07-1.67 1.43-.54.37-1.06.55-1.54.55Zm14.67 0c-.47 0-.81-.14-1.04-.4a1.43 1.43 0 0 1-.33-.94c0-.28.07-.57.2-.87.15-.3.32-.55.53-.74.2-.2.42-.3.64-.3.1 0 .2.05.3.14.12.1.21.2.29.34.07.1.18.18.3.26.14.09.3.13.48.13.17 0 .35-.05.55-.15.2-.1.4-.27.6-.5a145.3 145.3 0 0 0 1.88-2.15.82.82 0 0 0 .16-.35c.02-.1 0-.24-.05-.4l-1.07-3.62a.94.94 0 0 0-.15-.35.3.3 0 0 0-.24-.12c-.2 0-.46.12-.77.37-.3.26-.64.6-1 1.03a.7.7 0 0 1-.15.12.32.32 0 0 1-.18.07.32.32 0 0 1-.2-.08c-.07-.06-.1-.14-.1-.25 0-.36.1-.75.32-1.18a5.43 5.43 0 0 1 2.08-2.2c.47-.25.96-.38 1.49-.38.46 0 .82.18 1.07.52.26.35.47.8.63 1.36l.82 2.58c.05.22.17.21.36-.03l1.65-2.3a6.77 6.77 0 0 1 1.51-1.64c.47-.32.92-.49 1.35-.49.48 0 .89.19 1.22.55.32.36.49.69.49.97 0 .31-.08.61-.24.9-.16.27-.35.5-.58.68-.22.18-.42.26-.58.26-.23 0-.38-.04-.47-.12-.08-.09-.16-.2-.23-.32a1.39 1.39 0 0 0-.26-.37c-.09-.1-.24-.14-.44-.14-.15 0-.34.05-.56.14-.23.1-.53.34-.9.73-.26.26-.53.58-.8.95-.27.38-.54.79-.82 1.23a8.7 8.7 0 0 0-.2.48c-.06.15-.05.35.03.59l.78 2.85c.1.3.19.5.28.6.1.1.2.16.34.16.15 0 .37-.13.66-.38.29-.25.6-.66.93-1.22.12-.15.24-.22.37-.22.07 0 .13.03.18.1.05.06.07.17.07.32 0 .28-.1.63-.3 1.05-.19.42-.46.84-.8 1.26-.35.42-.75.77-1.2 1.05a2.6 2.6 0 0 1-1.4.42c-.52 0-.95-.2-1.3-.57a2.92 2.92 0 0 1-.68-1.22 93.1 93.1 0 0 1-.26-1.25c-.09-.47-.18-.89-.28-1.24a.49.49 0 0 0-.12-.23c-.05-.04-.12 0-.21.11l-.81 1.2c-.27.42-.55.81-.84 1.18a5.6 5.6 0 0 1-1.52 1.5c-.54.35-1.03.52-1.48.52Z"/>
</svg>

