<svg xmlns="http://www.w3.org/2000/svg" fill="none" viewBox="0 0 2048 1152">
  <path fill="#030000" d="M0 0h2048v1152H0z"/>
  <path fill="#fff" d="M378.4 817.7a241.4 241.4 0 1 0 0-482.7 241.4 241.4 0 0 0 0 482.7Z"/>
  <path fill="#000" d="M483.9 424.3c-24.5.9-46 14.4-61.9 33a208.4 208.4 0 0 0-37.8 69.7c-15.1-12.4-26.8-28.4-51-35.4a62.4 62.4 0 0 0-56.6 10.3 50.7 50.7 0 0 0-17.3 25.2c-7.3 23.7 7.6 44.8 14.4 52.3l14.8 15.9c3 3.1 10.4 11.3 6.9 22.9-4 12.7-19.2 20.9-34.9 16-7-2.1-17-7.3-14.8-14.6 1-3 3.1-5.3 4.3-7.9 1-2.2 1.5-3.9 1.8-4.9 2.9-9.3-1-21.5-11-24.6-9.4-2.8-19-.5-22.6 11.5-4.2 13.6 2.3 38.4 37.3 49.2 41 12.6 75.8-9.7 80.7-38.9 3-18.2-5.2-31.8-20.3-49.2l-12.3-13.6a22.4 22.4 0 0 1-2.3-29.9c6.6-8.2 15.8-11.7 31-7.6 22.2 6 32 21.4 48.5 33.8-6.8 22.3-11.2 44.7-15.3 64.8l-2.4 15c-11.8 61.7-20.8 95.7-44.2 115.1-4.7 3.4-11.4 8.4-21.5 8.8-5.4.1-7-3.5-7.2-5.1 0-3.8 3-5.5 5.2-7.2 3-1.7 7.8-4.5 7.5-13.5-.4-10.7-9.2-20-22-19.6-9.6.4-24.2 9.4-23.7 26 .6 17 16.5 29.8 40.5 29 12.8-.5 41.4-5.7 69.7-39.2 32.8-38.5 42-82.6 48.9-114.8l7.7-42.6c4.3.5 8.9.8 13.8 1 41 .8 61.4-20.4 61.7-35.8.2-9.3-6.1-18.5-15-18.3a17 17 0 0 0-16.2 13.2c-1.8 8.6 13 16.3 1.4 23.9-8.2 5.3-23 9.1-44 6l3.9-21c7.7-39.7 17.3-88.6 53.5-89.8 2.6-.1 12.3.2 12.5 6.5 0 2.2-.4 2.7-3 7.6-2.5 3.8-3.4 7-3.3 10.8.3 10.1 8 16.8 19.2 16.4 15-.5 19.2-15 19-22.5-.6-17.6-19.1-28.7-43.6-27.9Z"/>
  <path fill="#fff" d="M843 521.3h.2c4.5 0 8.8 3.1 10.7 7.3l28.6 88.2h.5l29.3-88.2a12.3 12.3 0 0 1 10.7-7.3h13.2l-42.6 118c-8 22-16.3 47.7-44.3 47.7-6.8 0-10.7-1-14.5-1.6l.6-7.4c.8-5.2 4.4-8.6 9.3-8.3h1.4c19 0 25.3-26.2 25.3-28.5 0-2.4-2.7-8.3-4-12.2l-39.2-107.7h14.9Zm722.9 0-42.6 118c-8 22-16.3 47.7-44.3 47.7-6.8 0-10.7-1-14.5-1.6l.5-7.4c.9-5.2 4.5-8.6 9.4-8.3h1.4c19 0 25.3-26.2 25.3-28.5 0-2.4-2.7-8.3-4-12.2l-39.2-107.7h14.9c4.5 0 9 3.1 10.8 7.3l28.6 88.2h.5l29.2-88.2c2-4.2 6.3-7.3 10.8-7.3h13.2Zm-297.8-2.7c35.1 0 58.6 25.3 58.6 60.4 0 33-24 60.4-58.6 60.4-34.8 0-58.8-27.3-58.8-60.4 0-35 23.5-60.4 58.8-60.4ZM763.7 639.2h-.1c-10.8 0-21.5-3-32-6.3l.7-6.3c.6-5.5 4.5-9.7 9.3-9a87.3 87.3 0 0 0 24.9 4.6c14.2 0 34.8-8 35-29.3-.2-20.5-19.6-27.5-37.2-36-18-8.7-34.7-18.3-34.8-43.2.1-28.4 22-43.2 51.6-43.4 8.1 0 17.5 1.1 26.4 3.3l-.4 7a9.2 9.2 0 0 1-9.5 8.3h-.2c-4.6-1-9.3-1.6-15.2-1.6h-.2c-13.6 0-31.2 5-31.3 24.3.4 18 19.6 24.2 37.2 33.2 17.9 9 34.7 20.2 34.8 46.6-.1 34.3-25.9 47.6-59 47.8Zm593.8-2.5h-11.7V521.3h10.9c5.4 0 9.7 4.4 9.7 9.7v8.7h.5c6.3-13.2 21.7-21.1 37.8-21.1 29.8 0 43.2 18.6 43.2 49.6v59.3a9.6 9.6 0 0 1-9.6 9.2h-11.7V577c0-27-5.8-40-24.4-41.2-24.2 0-35.1 19.5-35.1 47.5v44.5c-.4 5-4.5 9-9.5 9Zm-392.6 0h-11.5V521.3h10.2c5.3 0 9.6 4.3 9.7 9.6v7.2h.4c8.2-13.4 19.7-19.5 36.7-19.5 13.3 0 26.7 6.8 32.8 22.4a41.1 41.1 0 0 1 35.7-22.4c29.5 0 40 19 40 44.1v66.5a9.6 9.6 0 0 1-9.3 7.5h-11.9V568c0-14.2-3.4-32.1-20.6-32.1-21.7 0-30.3 21.3-30.3 42.8V628c-.5 5-4.5 8.8-9.5 8.8h-11.8V568c0-14.2-3.4-32.1-20.6-32.1-21.7 0-30.3 21.3-30.3 42.8V627c0 5.3-4.4 9.6-9.7 9.6Zm172-98.2a9.6 9.6 0 0 1-9.5-8.2v-9h27.2v-9.2c0-28 7.2-46.3 38.7-46.3 5.4 0 10 .6 14.2 1.3l-.3 7c-.3 5-4.6 9.2-9.7 8.8h-1c-18.4 0-20.7 11.8-20.7 27.4v11h30.6v8c-.2 5-4.3 9-9.3 9.2h-21.3v89.9a9.7 9.7 0 0 1-9.5 8.3h-11.7v-98.2H1137Zm131.2 83.7c25 0 36-22.6 36-43.2 0-22-13.3-43.2-36-43.2-22.8 0-36.2 21.3-36.2 43.2 0 20.6 11.1 43.2 36.2 43.2Zm338.5 14c3.3 3.4 7 5 11 5 4.9 0 10.3-1.8 15.9-5.6 5.5-3.7 11.3-8.7 17.3-14.8 5.8-6.2 11.7-13.2 17.6-20.7a986 986 0 0 0 17.3-23c.9-1.3 1.8-1.8 2.9-1.8.9.1 1.1 1 .5 2.8-3.8 10-8 20-12.5 29.7l-5.4 11.7a8 8 0 0 0-1 4.5c0 1.2.2 2.3.6 3.4 1.5 2 3.1 3.7 5 5.2 2 1.6 4.5 3 7.3 3.7 2.7.8 5.4.7 8-.2a35 35 0 0 0 12.4-3.5 121 121 0 0 0 38.3-29.1c2.8-3.4 4.1-6.4 4.1-8.8 0-1.3-.4-2.3-1.1-3.1-.8-1-1.6-1.4-2.7-1.4l-1 .9a135 135 0 0 1-22.8 17.6c-4 2.3-6.7 3.6-8.3 3.6-1 0-1.5-.7-1.5-2-.1-1.6.1-3 .7-4.4l29-75.1c1-2.7.7-5.5-.7-8.4a19.3 19.3 0 0 0-6.4-7.6 15.8 15.8 0 0 0-9.8-3.2c-3.3 0-6.2 1.8-8.8 5.1-6.2 8-11.7 16.5-16.6 25.3-6.2 10.1-13 19.8-20.4 29l-14.7 19.5c-4.7 6.5-9 11.6-12.7 15.8-3.8 4.1-6.6 6.2-8.6 6.2-1.9 0-3-1-3.1-3.1-.4-2.2.3-4.7 1.7-7.5 6.8-14.8 12.9-28 18.3-39.3l13.6-29.4a11 11 0 0 0 0-9.2 26 26 0 0 0-6-8.8 12.2 12.2 0 0 0-8.3-3.8c-6.4.1-12.8 1.7-18.6 4.5a87 87 0 0 0-19.2 12.3 124.3 124.3 0 0 0-17.8 18.2 44.6 44.6 0 0 0-3.6 5.4 10.6 10.6 0 0 0-1.7 5.7c0 1.8.9 2.6 2.5 2.6 1.7 0 3.7-1.1 6.2-3.5 5-4.5 10.5-8.6 16.3-12 3-1.9 5-2.7 6.1-2.7 1.5 0 2.4.7 2.6 2.3.2 1.4-.4 3.7-1.8 6.6l-27 61.5a17.6 17.6 0 0 0-.2 12.2 28 28 0 0 0 7.1 11.7Zm152.1.9c2.4 2.7 5.9 4.2 10.8 4.2a29 29 0 0 0 15.3-5.4 58 58 0 0 0 15.7-15.5c3-3.9 6-8 8.7-12.3l8.4-12.4c1-1.1 1.7-1.5 2.2-1.1a5 5 0 0 1 1.2 2.4c1 3.6 2 8 3 12.8a952 952 0 0 0 2.6 13c1.3 4.7 3.7 9 7 12.6 3.7 3.8 8.2 5.9 13.5 5.9a27 27 0 0 0 14.5-4.4c4.7-2.9 8.9-6.5 12.5-10.8a61 61 0 0 0 8.3-13c2-4.4 3-8 3-11 0-1.5-.1-2.7-.7-3.3-.5-.7-1.1-1-1.8-1-1.4 0-2.6.7-3.9 2.3a51 51 0 0 1-9.6 12.6c-3 2.6-5.3 4-6.8 4s-2.5-.7-3.5-1.7-2-3.1-3-6.2l-8-29.5c-.9-2.5-1-4.6-.3-6.2l2-5c3-4.5 5.7-8.7 8.5-12.7 2.8-3.8 5.6-7.1 8.3-9.8 3.9-4 7-6.5 9.3-7.6 2.3-.9 4.3-1.4 5.8-1.4 2.1 0 3.7.4 4.6 1.4 1 1.2 2 2.5 2.7 3.9.7 1.2 1.5 2.4 2.4 3.3.9.8 2.4 1.2 4.8 1.2 1.7 0 3.8-.8 6-2.7 2.4-1.8 4.4-4.2 6-7a19 19 0 0 0 2.5-9.3c0-3-1.7-6.3-5-10a16.6 16.6 0 0 0-12.7-5.8 26 26 0 0 0-14 5.1 70.3 70.3 0 0 0-15.6 17l-17 23.8c-2 2.5-3.3 2.6-3.8.3l-8.5-26.7a43.3 43.3 0 0 0-6.5-14 13 13 0 0 0-11.1-5.5c-5.5 0-10.6 1.4-15.5 4a56.3 56.3 0 0 0-21.5 22.8 26.8 26.8 0 0 0-3.3 12.2c0 1.1.3 2 1 2.6.6.5 1.3.8 2.1.8.7 0 1.3-.3 1.9-.7a7 7 0 0 0 1.5-1.3c3.7-4.4 7.3-8 10.4-10.6 3.2-2.6 5.9-3.9 8-3.9a3.1 3.1 0 0 1 2.4 1.3 9 9 0 0 1 1.6 3.6l11 37.5a8 8 0 0 1 .6 4.1 8.6 8.6 0 0 1-1.7 3.6c-6.4 7.5-12.9 15-19.4 22.3a22.2 22.2 0 0 1-6.3 5.2c-2 1-3.9 1.5-5.6 1.5a9 9 0 0 1-5-1.3c-1.3-.8-2.4-1.7-3.1-2.7-.9-1.5-1.8-2.5-3-3.5-1-1-2.1-1.5-3.1-1.5-2.3 0-4.6 1-6.7 3.1a23.3 23.3 0 0 0-7.5 16.7c-.1 3.6 1.1 7 3.4 9.7Z"/>
</svg>
