<svg xmlns="http://www.w3.org/2000/svg" viewBox="0 0 24 24">
    <path d="M22.613 13.146c.516-.648.516-1.644 0-2.292l-5.5-6.38c-.13-.15-.284-.27-.453-.35a1.233 1.233 0 0 0-1.07 0c-.17.08-.323.2-.453.35-.262.305-.41.717-.41 1.147 0 .43.148.842.41 1.146l3.18 3.638H2.374c-.365 0-.714.168-.972.467-.258.3-.403.705-.403 1.128 0 .423.145.829.403 1.128.258.299.607.467.972.467h15.941l-3.18 3.638a1.766 1.766 0 0 0-.409 1.146c0 .43.148.842.41 1.146.262.304.617.475.988.475.37 0 .726-.17.988-.475l5.5-6.379Z" />
</svg>
