<svg xmlns="http://www.w3.org/2000/svg" fill="none" viewBox="0 0 36 36">
  <path fill-rule="evenodd" d="M35.6 23.3H.4a.4.4 0 0 1-.4-.4c0-.2 0-.3.2-.4h3.5c-1.1-1.2-1.3-2.6-1-3.5.3-1.2 1.3-1.5 2.2-1.2 1 .3 1.4 1.5 1.1 2.5l-.2.5-.4.8c-.1.3 0 .6.3.8h4c.3-.3.5-.6.6-1 .4-1.2-.3-2-.6-2.3l-1.5-1.6c-.7-.7-2.2-2.8-1.5-5.2a5 5 0 0 1 1.8-2.5 6.2 6.2 0 0 1 5.6-1c2.4.6 3.6 2.2 5 3.5 1-2.5 2.1-5 3.9-7A8.6 8.6 0 0 1 29 2c2.5 0 4.3 1 4.4 2.8 0 .7-.4 2.2-2 2.3-1 0-1.8-.7-1.8-1.7 0-.4 0-.7.3-1l.3-.8c0-.7-1-.7-1.3-.7-3.6.1-4.5 5-5.3 9l-.4 2.1c2.1.3 3.6 0 4.4-.6 1.2-.7-.3-1.5-.1-2.4.2-.9 1-1.3 1.6-1.3.9 0 1.5.9 1.5 1.8 0 1.6-2 3.7-6.2 3.6h-1.3l-.8 4.2-.7 3.1h13.9c.2 0 .4.2.4.4s0 .4-.3.4h-.1Zm-18.7-.9.2-1 .2-1.6c.4-2 .9-4.2 1.6-6.5-1.7-1.2-2.7-2.7-4.9-3.3-1.5-.5-2.4-.1-3 .7-.8 1-.6 2.3.2 3l1.2 1.4c1.5 1.7 2.3 3 2 4.9-.1.9-.6 1.7-1.2 2.4h3.7Z" clip-rule="evenodd"/>
  <path d="M31 34.8c1 0 1.7-.3 2.5-.7a4.8 4.8 0 0 0 2.3-4.1c0-.9-.2-1.7-.6-2.4a4.8 4.8 0 0 0-4.1-2.4c-.9 0-1.7.2-2.4.6a4.8 4.8 0 0 0-2.4 4.2c0 .8.2 1.6.6 2.4a4.8 4.8 0 0 0 4.2 2.4Zm0-1c-.6 0-1.3-.1-1.9-.5a3.9 3.9 0 0 1-1.4-5.3 3.9 3.9 0 0 1 3.4-1.9c.7 0 1.3.2 1.9.5a3.9 3.9 0 0 1 1.4 5.3 3.9 3.9 0 0 1-3.3 2Zm-1-1.4 3.3-2c.2 0 .2-.2.2-.4s0-.3-.2-.4l-3.4-2a.3.3 0 0 0-.4 0c-.2 0-.3.2-.3.4v4c0 .2.1.3.3.4h.4ZM7 33.7c.3 0 .5-.1.7-.3.2-.2.3-.4.3-.7v-1l2.1 1.2.4.2a.6.6 0 0 0 .6-.7v-5l-.2-.4a.6.6 0 0 0-.8 0l-2 1.3v-1.1c0-.3-.2-.5-.4-.7a1 1 0 0 0-.7-.2H1a1 1 0 0 0-.7.2 1 1 0 0 0-.3.7v5.5c0 .3.1.5.3.7.2.2.4.3.7.3h6Zm0-1H1v-5.5h6v5.5Zm3.2-.8L8 30.5v-1.1l2.2-1.3v3.8Zm8.2 2.9h.7c.6-.2 1.2-.6 1.8-1.2a8.1 8.1 0 0 0 2.5-6.1c0-.2 0-.4-.2-.5a.8.8 0 0 0-.4-.4L19 25.1a.8.8 0 0 0-.7 0l-3.7 1.5-.4.4a1 1 0 0 0-.2.5 9 9 0 0 0 .7 3.4 7.2 7.2 0 0 0 3.6 3.9Zm.3-.8c-.6-.3-1.2-.7-1.8-1.3-.5-.7-1-1.4-1.3-2.3-.4-.9-.6-1.9-.6-3l3.7-1.5 3.7 1.6a7 7 0 0 1-2 5.2c-.4.6-1 1-1.7 1.3Zm0-1v-6L16 28c0 1 .4 2 .9 3 .4.7 1 1.4 1.8 1.8Z"/>
</svg>

