<svg xmlns="http://www.w3.org/2000/svg" viewBox="0 0 31 30">
    <path fill-rule="evenodd"
          d="M30.59 15a15 15 0 1 1-30 0 15 15 0 0 1 30 0Zm-12.3-7.4c1-1.16 2.33-2 3.85-2.05 1.53-.05 2.68.64 2.71 1.73.02.47-.25 1.37-1.18 1.4-.69.02-1.17-.39-1.2-1.02 0-.23.06-.43.22-.67l.07-.13c.1-.19.12-.23.11-.34-.01-.4-.61-.41-.78-.4-2.25.07-2.84 3.1-3.32 5.58l-.24 1.3c1.3.2 2.22-.04 2.73-.37.44-.29.28-.58.1-.88-.11-.2-.23-.4-.18-.6.12-.55.61-.82 1-.83.55 0 .95.56.93 1.14-.01.96-1.29 2.28-3.83 2.22-.3 0-.6-.03-.86-.06l-.48 2.65-.01.06c-.43 2-1 4.7-3.03 7.07-1.75 2.09-3.53 2.41-4.33 2.44-1.49.05-2.48-.75-2.51-1.8-.04-1.04.87-1.6 1.47-1.62.8-.02 1.34.55 1.36 1.22.02.56-.27.74-.46.84l-.06.05c-.13.09-.27.2-.26.4 0 .1.11.32.44.31a2.31 2.31 0 0 0 1.32-.53l.02-.01c1.45-1.21 2.01-3.32 2.75-7.16l.15-.93v-.03c.25-1.24.53-2.62.95-4-.31-.23-.59-.48-.86-.73a5 5 0 0 0-2.16-1.37c-.94-.25-1.52-.04-1.92.48-.48.6-.32 1.39.14 1.85l.77.85c.93 1.08 1.45 1.93 1.25 3.06-.3 1.8-2.46 3.2-5 2.41-2.18-.67-2.6-2.2-2.33-3.06.23-.74.82-.88 1.4-.7.63.19.87.94.7 1.52l-.01.02a2.17 2.17 0 0 1-.23.48c-.05.09-.11.18-.15.3-.14.45.49.77.92.9.98.3 1.92-.2 2.17-1 .22-.72-.24-1.22-.43-1.41l-.92-1c-.42-.46-1.35-1.77-.9-3.24.18-.57.55-1.17 1.08-1.57a3.88 3.88 0 0 1 3.51-.64c1.14.33 1.83.97 2.5 1.6l.68.6A12.95 12.95 0 0 1 18.3 7.6Z"
          clip-rule="evenodd"/>
</svg>
