<svg width="59" height="58" viewBox="0 0 59 58" fill="none" xmlns="http://www.w3.org/2000/svg">
<path fill-rule="evenodd" clip-rule="evenodd" d="M24.734 20.1523C25.5321 20.7908 25.6615 21.9554 25.023 22.7535L20.0258 29L25.023 35.2465C25.6615 36.0446 25.5321 37.2092 24.734 37.8477C23.9359 38.4862 22.7713 38.3568 22.1328 37.5587L16.2107 30.1561C15.67 29.4802 15.67 28.5198 16.2107 27.8439L22.1328 20.4413C22.7713 19.6432 23.9359 19.5138 24.734 20.1523Z" fill="white"/>
<path fill-rule="evenodd" clip-rule="evenodd" d="M34.266 20.1523C35.0641 19.5138 36.2287 19.6432 36.8672 20.4413L42.7893 27.8439C43.33 28.5198 43.33 29.4802 42.7893 30.1561L36.8672 37.5587C36.2287 38.3568 35.0641 38.4862 34.266 37.8477C33.4679 37.2092 33.3385 36.0446 33.977 35.2465L38.9742 29L33.977 22.7535C33.3385 21.9554 33.4679 20.7908 34.266 20.1523Z" fill="white"/>
<path fill-rule="evenodd" clip-rule="evenodd" d="M8.77273 4.2013C6.52414 4.2013 4.7013 6.02414 4.7013 8.27273V49.7273C4.7013 51.9759 6.52414 53.7987 8.77273 53.7987H50.2273C52.4759 53.7987 54.2987 51.9759 54.2987 49.7273V8.27273C54.2987 6.02414 52.4759 4.2013 50.2273 4.2013H8.77273ZM1 8.27273C1 3.97997 4.47997 0.5 8.77273 0.5H50.2273C54.52 0.5 58 3.97997 58 8.27273V49.7273C58 54.02 54.52 57.5 50.2273 57.5H8.77273C4.47997 57.5 1 54.02 1 49.7273V8.27273Z" fill="white"/>
<path fill-rule="evenodd" clip-rule="evenodd" d="M24.734 20.1523C25.5321 20.7908 25.6615 21.9554 25.023 22.7535L20.0258 29L25.023 35.2465C25.6615 36.0446 25.5321 37.2092 24.734 37.8477C23.9359 38.4862 22.7713 38.3568 22.1328 37.5587L16.2107 30.1561C15.67 29.4802 15.67 28.5198 16.2107 27.8439L22.1328 20.4413C22.7713 19.6432 23.9359 19.5138 24.734 20.1523Z" stroke="white" stroke-linecap="round" stroke-linejoin="round"/>
<path fill-rule="evenodd" clip-rule="evenodd" d="M34.266 20.1523C35.0641 19.5138 36.2287 19.6432 36.8672 20.4413L42.7893 27.8439C43.33 28.5198 43.33 29.4802 42.7893 30.1561L36.8672 37.5587C36.2287 38.3568 35.0641 38.4862 34.266 37.8477C33.4679 37.2092 33.3385 36.0446 33.977 35.2465L38.9742 29L33.977 22.7535C33.3385 21.9554 33.4679 20.7908 34.266 20.1523Z" stroke="white" stroke-linecap="round" stroke-linejoin="round"/>
<path fill-rule="evenodd" clip-rule="evenodd" d="M8.77273 4.2013C6.52414 4.2013 4.7013 6.02414 4.7013 8.27273V49.7273C4.7013 51.9759 6.52414 53.7987 8.77273 53.7987H50.2273C52.4759 53.7987 54.2987 51.9759 54.2987 49.7273V8.27273C54.2987 6.02414 52.4759 4.2013 50.2273 4.2013H8.77273ZM1 8.27273C1 3.97997 4.47997 0.5 8.77273 0.5H50.2273C54.52 0.5 58 3.97997 58 8.27273V49.7273C58 54.02 54.52 57.5 50.2273 57.5H8.77273C4.47997 57.5 1 54.02 1 49.7273V8.27273Z" stroke="white" stroke-linecap="round" stroke-linejoin="round"/>
</svg>
