<svg xmlns="http://www.w3.org/2000/svg" fill="#fff" viewBox="0 0 186 223">
  <path fill-rule="evenodd" d="M139.43 92.9a46.69 46.69 0 0 1-46.66 46.72A46.69 46.69 0 0 1 46.1 92.91a46.69 46.69 0 0 1 46.67-46.72 46.69 46.69 0 0 1 46.66 46.72Zm-19 0a27.69 27.69 0 0 1-27.66 27.72A27.69 27.69 0 0 1 65.1 92.91a27.69 27.69 0 0 1 27.67-27.72 27.69 27.69 0 0 1 27.66 27.72Z" clip-rule="evenodd"/>
  <path fill-rule="evenodd" d="m81.35 218.96 11.42-15.19 11.41 15.2a19 19 0 0 1-22.83 0Zm11.42-15.19S19 148.34 19 92.91a74 74 0 0 1 21.6-52.26 73.7 73.7 0 0 1 104.33 0 73.98 73.98 0 0 1 21.6 52.26c0 55.43-73.76 110.86-73.76 110.86Zm11.42 15.19-11.42-15.19c-11.42 15.2-11.42 15.19-11.43 15.19v-.01l-.03-.02-.07-.05-.22-.17a120.52 120.52 0 0 1-3.34-2.63 308.25 308.25 0 0 1-36.01-34.34C22.79 160.45 0 128.12 0 92.9a92.98 92.98 0 0 1 27.16-65.68 92.7 92.7 0 0 1 131.21 0 92.98 92.98 0 0 1 27.16 65.68c0 35.2-22.79 67.54-41.67 88.83a308.17 308.17 0 0 1-38.61 36.4l-.74.57-.22.17-.07.05-.03.03Z" clip-rule="evenodd"/>
</svg>
