<svg xmlns="http://www.w3.org/2000/svg" fill="none" viewBox="0 0 176 176">
  <path fill="#fff" d="M176 44.9718V23h-39.134a23.1109 23.1109 0 0 0-10.128 3.0516l-82.8621 48.216a23.4227 23.4227 0 0 1-9.8207 2.7464H0v21.9716h39.2724A23.7217 23.7217 0 0 0 49.4 95.9343l82.862-48.216a23.7355 23.7355 0 0 1 9.821-2.7465H176Z"/>
  <path fill="#fff" d="M0 44.6666h33.7483a23.7282 23.7282 0 0 1 10.1276 3.0517l9.2069 5.1878a10.1734 10.1734 0 0 0 4.6034 1.1004c1.6004 0 3.178-.377 4.6035-1.1004l11.6621-6.7136a3.064 3.064 0 0 0 1.2626-1.1258 3.0392 3.0392 0 0 0 .4686-1.6207c0-.5733-.1624-1.135-.4686-1.6207a3.0633 3.0633 0 0 0-1.2626-1.1258L49.4 26.3567a23.7305 23.7305 0 0 0-10.1276-3.0516H0v21.3615Zm0 86.0564h34.0552a23.7327 23.7327 0 0 0 9.8207-2.746l82.8621-48.2164a23.7271 23.7271 0 0 1 10.128-3.0517H176v22.2767h-33.917a23.749 23.749 0 0 0-9.821 2.7464L49.4 149.948A23.103 23.103 0 0 1 39.2724 153H0v-22.277Z"/>
  <path fill="#fff" d="M176 152.695h-39.134a23.1035 23.1035 0 0 1-10.128-3.052L102.186 135.3c-.444-.273-.81-.655-1.065-1.109a3.0404 3.0404 0 0 1-.387-1.485c0-.519.133-1.03.387-1.483.255-.455.621-.837 1.065-1.11l11.662-7.019a10.18 10.18 0 0 1 4.604-1.1c1.6 0 3.178.377 4.603 1.1l9.207 5.187a23.4078 23.4078 0 0 0 10.128 3.052H176v21.362Z"/>
</svg>
