<svg width="48" height="48" viewBox="0 0 48 48" fill="none" xmlns="http://www.w3.org/2000/svg">
<path fill-rule="evenodd" clip-rule="evenodd" d="M22.0643 3.24907C28.0813 -0.569421 36.4512 1.20483 40.6554 7.26042C42.6996 10.0761 43.5096 13.6246 42.8539 17.0959C42.5839 18.7159 41.9668 20.2587 41.0411 21.6473C42.391 24.1544 42.8153 27.0472 42.3139 29.8628C41.7353 33.2185 39.7297 36.1884 36.8369 38.0012L26.2299 44.7511C20.2129 48.5696 11.8816 46.7954 7.63887 40.7398C5.6332 37.9241 4.82322 34.3756 5.44035 30.9428C5.71034 29.3228 6.32747 27.78 7.25317 26.3915C5.90319 23.8844 5.47892 20.9916 5.98034 18.1759C6.5589 14.8203 8.56457 11.8503 11.4574 10.0375L22.0643 3.24907ZM11.9976 37.9628C14.0033 40.8556 17.5903 42.2056 21.0231 41.3185C21.7945 41.087 22.5274 40.7785 23.1831 40.3542L33.79 33.6043C35.5257 32.5243 36.7599 30.7115 37.1071 28.7058C37.4542 26.623 36.9914 24.5016 35.7571 22.8045C33.7514 19.9117 30.1644 18.5618 26.7316 19.4489C25.9602 19.6803 25.2273 19.9889 24.5716 20.4132L20.5217 22.9974C20.3288 23.1131 20.0974 23.1902 19.866 23.2674C18.8246 23.5374 17.7446 23.1517 17.1275 22.2645C16.7803 21.7631 16.6261 21.1074 16.7418 20.4903C16.8575 19.8732 17.2046 19.3717 17.7446 19.0246L28.313 12.2747C28.5058 12.159 28.7372 12.0819 28.9687 12.0047C30.0101 11.7348 31.0901 12.1205 31.7072 13.0076C32.0158 13.4704 32.17 14.049 32.1315 14.589L32.0929 14.9747L32.4786 15.0904C33.9829 15.5533 35.3714 16.2475 36.6442 17.1732L37.1842 17.5589L37.3771 16.9418C37.4928 16.5947 37.5699 16.2861 37.6471 15.939C37.9942 13.8561 37.5314 11.7348 36.2971 10.0376C34.2914 7.14485 30.7043 5.79487 27.2716 6.682C26.5001 6.91342 25.7673 7.22199 25.1116 7.64626L14.5047 14.3961C12.769 15.4761 11.5347 17.2889 11.1876 19.2946C10.8019 21.3774 11.3033 23.4988 12.499 25.1959C14.5047 28.0887 18.0917 29.4387 21.5245 28.5516C22.2959 28.3587 23.0288 28.0501 23.6845 27.6259L27.7344 25.0416C27.9273 24.9259 28.1587 24.8488 28.3901 24.7716C29.4315 24.5016 30.5115 24.8874 31.1286 25.7745C31.4758 26.2759 31.63 26.9316 31.5143 27.5487C31.3986 28.1659 31.0515 28.6673 30.5115 29.0144L19.9431 35.7643C19.7503 35.88 19.5189 35.9571 19.2874 36.0343C18.246 36.3043 17.166 35.88 16.5489 34.9929C16.2404 34.53 16.0861 33.9515 16.1246 33.4115L16.1632 33.0258L15.7775 32.9101C14.2732 32.4472 12.8847 31.7529 11.6119 30.8272L11.0719 30.4415L10.879 31.0587C10.8405 31.2322 10.8019 31.3961 10.7633 31.5601C10.7247 31.724 10.6862 31.8879 10.6476 32.0615C10.3005 34.1443 10.7633 36.2657 11.9976 37.9628Z" fill="white"/>
</svg>
