<svg width="48" height="48" viewBox="0 0 48 48" fill="none" xmlns="http://www.w3.org/2000/svg">
<g clip-path="url(#clip0_1457_1632)">
<path d="M15.1652 10.4058L17.7204 16.592H12.436L14.9913 10.4058C15.0058 10.3708 15.0402 10.3478 15.0782 10.3478C15.1163 10.3478 15.1506 10.3708 15.1652 10.4058Z" fill="white"/>
<path d="M44.3997 20.0507H22.7169L22.7169 41.7334C22.7169 43.517 24.1628 44.9628 25.9464 44.9628H44.3997C46.1832 44.9628 47.6291 43.517 47.6291 41.7334V23.2801C47.6291 21.4965 46.1832 20.0507 44.3997 20.0507Z" fill="white" fill-opacity="0.4"/>
<path fill-rule="evenodd" clip-rule="evenodd" d="M41.3876 28.9407H39.4734C39.5191 29.0674 39.5223 29.21 39.4709 29.3472C38.6095 31.6483 37.4632 33.507 35.9887 35.0109C37.4128 36.2218 39.1328 37.1515 41.1658 37.7484C41.5671 37.8662 41.721 38.414 41.4912 38.7634C41.3562 38.9688 41.1171 39.0598 40.8808 38.9919C38.5553 38.3244 36.6393 37.2714 35.0698 35.8669C33.5168 37.1876 31.6491 38.1934 29.4278 38.964C29.17 39.0534 28.9017 38.9587 28.7589 38.7262C28.5572 38.3978 28.6815 37.8983 29.0477 37.7784C31.0881 37.1112 32.8011 36.2136 34.2194 35.0361C32.7677 33.4893 31.6552 31.5925 30.8176 29.3805C30.7609 29.2308 30.773 29.0735 30.8369 28.9407H28.9869C28.6803 28.9407 28.4316 28.6921 28.4316 28.3854C28.4316 28.0787 28.6803 27.8299 28.9869 27.8299H34.5593V25.8536C34.5593 25.5357 34.8169 25.2781 35.1348 25.2781C35.4527 25.2781 35.7103 25.5357 35.7103 25.8536V27.8299H41.3872C41.6939 27.8299 41.9425 28.0787 41.9425 28.3854C41.9425 28.6921 41.6939 28.9407 41.3872 28.9407L41.3876 28.9407ZM31.8785 28.9407H38.3214C38.3187 28.9476 38.3162 28.9544 38.3137 28.9612C37.5518 31.0832 36.5025 32.811 35.1251 34.2059C33.7174 32.7683 32.6524 31.0134 31.9077 29.007C31.8992 28.9841 31.8895 28.9621 31.8787 28.9409L31.8785 28.9407Z" fill="white"/>
<path fill-rule="evenodd" clip-rule="evenodd" d="M1.23779 5.85149C1.23779 3.30356 3.3032 1.23816 5.85112 1.23816H24.3044C26.8524 1.23816 28.9178 3.30356 28.9178 5.85149V24.3048C28.9178 26.8527 26.8524 28.9181 24.3044 28.9181H5.85112C3.3032 28.9181 1.23779 26.8527 1.23779 24.3048V5.85149ZM10.4414 21.4193C10.2967 21.7697 9.95498 21.9982 9.57604 21.9982C8.90425 21.9982 8.45107 21.3117 8.71506 20.694L13.6757 9.08381C13.9156 8.52248 14.4672 8.15824 15.0778 8.15824C15.6883 8.15824 16.24 8.52249 16.4799 9.08381L21.4405 20.694C21.7045 21.3117 21.2513 21.9982 20.5795 21.9982C20.2006 21.9982 19.8589 21.7697 19.7142 21.4193L18.3342 18.0786H11.8213L10.4414 21.4193Z" fill="white"/>
</g>
<defs>
<clipPath id="clip0_1457_1632">
<rect width="48" height="48" fill="white"/>
</clipPath>
</defs>
</svg>
