<svg xmlns="http://www.w3.org/2000/svg" fill="none" viewBox="0 0 99 36">
    <path fill="#fff" fill-rule="evenodd"
          d="M14.5 4a4 4 0 0 1 4-4h8a4 4 0 0 1 4 4v8a4 4 0 0 1-4 4h-8a4 4 0 0 1-4-4V4Zm10.6 8v-1.6h-3.6V3.7h-2V12h5.6Zm7.4-8a4 4 0 0 1 4-4h8a4 4 0 0 1 4 4v8a4 4 0 0 1-4 4h-8a4 4 0 0 1-4-4V4Zm9-.3h-2V12h2V3.7Zm9 .3a4 4 0 0 1 4-4h8a4 4 0 0 1 4 4v8a4 4 0 0 1-4 4h-8a4 4 0 0 1-4-4V4Zm6.1 5.8 1 2.2h1.8a62.5 62.5 0 0 0 3.3-8.3h-2a193.6 193.6 0 0 1-2.2 6 23.8 23.8 0 0 1-1-2.8l-.6-1.7-.5-1.5h-2.1a90.6 90.6 0 0 0 2.3 6.1ZM68.5 4a4 4 0 0 1 4-4h8a4 4 0 0 1 4 4v8a4 4 0 0 1-4 4h-8a4 4 0 0 1-4-4V4Zm5.3-.3V12h6v-1.6h-4.1v-2H79V7h-3.3V5.3h3.7V3.7h-5.6Z"
          clip-rule="evenodd"/>
    <path fill="#fff"
          d="M6 18.8a34.2 34.2 0 0 1 2 4 81.7 81.7 0 0 1 2 5 4567.7 4567.7 0 0 1 3.3-7.2l1-1.8h3a67.6 67.6 0 0 1 .8 7.3 183 183 0 0 1 .5 7.9h-3.4a396.5 396.5 0 0 0-.5-10.1l-.9 2-1 2.3a200.1 200.1 0 0 1-1.6 3.9H8.8a217.7 217.7 0 0 0-3.5-8.2A130.7 130.7 0 0 0 4.8 34H1.5a778.6 778.6 0 0 1 .8-11.8c0-1.3.2-2.4.4-3.4H6ZM21.7 34V18.8H32v2.8h-7v3h6.2v2.8H25v3.7h7.4V34H21.7ZM39 18.8a34.1 34.1 0 0 1 2 4 81.4 81.4 0 0 1 2.2 5 5567.8 5567.8 0 0 1 3.2-7.2c.3-.8.7-1.4 1-1.8h3a67.6 67.6 0 0 1 .8 7.3 183 183 0 0 1 .5 7.9h-3.4a394.5 394.5 0 0 0-.5-10.1l-.9 2-1 2.3a198.1 198.1 0 0 1-1.6 3.9h-2.4a214 214 0 0 0-3.5-8.2A131 131 0 0 0 38 34h-3.3a786 786 0 0 1 .7-11.8l.5-3.4H39Zm18.6 7.6a6.4 6.4 0 0 0 1.1 3.6 3.7 3.7 0 0 0 3 1.3 4 4 0 0 0 1.7-.4c.5-.2.9-.5 1.2-1 .4-.4.7-1 .8-1.5a6.7 6.7 0 0 0 0-4c-.1-.7-.4-1.2-.8-1.6-.3-.5-.7-.8-1.2-1a4 4 0 0 0-1.7-.4 3.8 3.8 0 0 0-3.8 3 6 6 0 0 0-.3 2Zm11.7 0a9 9 0 0 1-.6 3.4 6.6 6.6 0 0 1-4 4 8.7 8.7 0 0 1-6 0 6.9 6.9 0 0 1-4-4 9 9 0 0 1-.6-3.4c0-1.3.2-2.5.6-3.5a9 9 0 0 1 1.6-2.5 7 7 0 0 1 2.5-1.5 8.4 8.4 0 0 1 5.8 0 6.7 6.7 0 0 1 4 4c.5 1 .7 2.2.7 3.5Zm7.3-7.8c2.3 0 4 .4 5.2 1.2 1.3.8 1.9 2 1.9 3.8 0 1-.3 2-.8 2.6-.5.7-1.2 1.2-2 1.6a19.5 19.5 0 0 1 1.9 2.8 22.7 22.7 0 0 1 1.8 3.4h-3.9a177.8 177.8 0 0 0-3.5-5.6h-1.6V34H72V19a19.5 19.5 0 0 1 4.5-.4Zm.2 2.9a9.6 9.6 0 0 0-1.2 0v4.2h1c1.2 0 2.1-.2 2.7-.5.6-.3.8-.9.8-1.6 0-.8-.3-1.3-.8-1.6a5 5 0 0 0-2.5-.5ZM91.7 25a83.8 83.8 0 0 0 3.3-6.2h3.7a97.8 97.8 0 0 1-5.4 9.4V34h-3.4v-5.8a133 133 0 0 1-5.5-9.4h4a56.1 56.1 0 0 0 3.3 6.2Z"/>
</svg>
