<svg xmlns="http://www.w3.org/2000/svg" fill="currentColor" viewBox="0 0 98 17">
  <path d="M5 .8a34.2 34.2 0 0 1 2 4 81.7 81.7 0 0 1 2 5 4701.4 4701.4 0 0 1 3.3-7.2l1-1.8h3a67.6 67.6 0 0 1 .8 7.3 183 183 0 0 1 .5 7.9h-3.4a396.5 396.5 0 0 0-.5-10.1l-.9 2-1 2.3a200.1 200.1 0 0 1-1.6 3.9H7.8a217.7 217.7 0 0 0-3.5-8.2A130.7 130.7 0 0 0 3.8 16H.5a777.6 777.6 0 0 1 .8-11.8c0-1.3.2-2.4.4-3.4H5ZM20.7 16V.8H31v2.8h-7v3h6.2v2.8H24v3.7h7.4V16H20.7ZM38 .8a34.2 34.2 0 0 1 2 4 81.4 81.4 0 0 1 2.2 5 5895.7 5895.7 0 0 1 3.2-7.2c.3-.8.7-1.4 1-1.8h3a67.6 67.6 0 0 1 .8 7.3 183 183 0 0 1 .5 7.9h-3.4a394.5 394.5 0 0 0-.5-10.1l-.9 2-1 2.3a198.1 198.1 0 0 1-1.6 3.9h-2.4a214 214 0 0 0-3.5-8.2A131 131 0 0 0 37 16h-3.3a786 786 0 0 1 .7-11.8l.5-3.4H38Zm18.6 7.6a6.4 6.4 0 0 0 1.1 3.6 3.7 3.7 0 0 0 3 1.3 4 4 0 0 0 1.7-.4c.5-.2.9-.5 1.2-1 .4-.4.7-1 .8-1.5a6.7 6.7 0 0 0 0-4c-.1-.7-.4-1.2-.8-1.6-.3-.5-.7-.8-1.2-1a4 4 0 0 0-1.7-.4 3.8 3.8 0 0 0-3.8 3 6 6 0 0 0-.3 2Zm11.7 0a9 9 0 0 1-.6 3.4 6.6 6.6 0 0 1-4 4 8.7 8.7 0 0 1-6 0 6.9 6.9 0 0 1-4-4 9 9 0 0 1-.6-3.4c0-1.3.2-2.5.6-3.5a9 9 0 0 1 1.6-2.5A7 7 0 0 1 57.8 1a8.4 8.4 0 0 1 5.8 0 6.7 6.7 0 0 1 4 4c.5 1 .7 2.2.7 3.5ZM75.6.6c2.3 0 4 .4 5.2 1.2 1.3.8 1.9 2 1.9 3.8 0 1-.3 2-.8 2.6-.5.7-1.2 1.2-2 1.6a19.5 19.5 0 0 1 1.9 2.8 22.7 22.7 0 0 1 1.8 3.4h-3.9a177.8 177.8 0 0 0-3.5-5.6h-1.6V16H71V1a19.5 19.5 0 0 1 4.5-.4Zm.2 2.9a9.6 9.6 0 0 0-1.2 0v4.2h1c1.2 0 2.1-.2 2.7-.5.6-.3.8-.9.8-1.6 0-.8-.3-1.3-.8-1.6a5 5 0 0 0-2.5-.5ZM90.7 7A83.8 83.8 0 0 0 94 .8h3.7a97.8 97.8 0 0 1-5.4 9.4V16h-3.4v-5.8A133 133 0 0 1 83.4.8h4A56.1 56.1 0 0 0 90.7 7Z"/>
</svg>

