<svg xmlns="http://www.w3.org/2000/svg" fill="currentColor" viewBox="0 0 16 16">
  <path d="M2.5.5A.5.5 0 0 1 3 0h10a.5.5 0 0 1 .5.5V2a3 3 0 1 1-1.2 6c-.8 1.8-1.8 2.7-2.8 3v2l1.4.4.6.2 1.8 1.4a.5.5 0 0 1-.3.9H3a.5.5 0 0 1-.3-.9l1.8-1.4.6-.2 1.4-.4v-2c-1-.2-2-1.1-2.8-3a3 3 0 1 1-1.2-6V.5ZM2.6 3a2 2 0 1 0 .7 4 18 18 0 0 1-.7-4Zm10 4a2 2 0 0 0 .8-4c-.1 1.6-.4 3-.7 4Zm-9-6v1.5c.2 2 .5 3.5 1 4.6.8 2.4 2 2.9 2.5 2.9a.5.5 0 0 1 .5.5v2.6a1 1 0 0 1-.8 1l-1.4.3-.2.1-.6.5h7l-.6-.5h-.2L9.3 14a1 1 0 0 1-.8-1v-2.6A.5.5 0 0 1 9 10c.5 0 1.7-.5 2.6-2.9a16.7 16.7 0 0 0 .9-6.1h-9Z"/>
</svg>
